<svg width="152" height="125" viewBox="0 0 152 125" fill="none" xmlns="http://www.w3.org/2000/svg">
<path d="M48.4591 7.27834V31.5893H53.9305V12.7851H99.0482V61.0655H53.9305V41.3862H48.4591V66.4869H104.52V7.27834H48.4591ZM46.0012 4.50361H107.255V68.8774H46.0012L45.873 38.6542H71.8621C73.8712 38.6542 74.8329 38.953 75.1963 39.572C75.5596 40.1909 75.7947 40.1269 75.7947 43.4779V49.0487C75.7947 53.0828 74.9184 54.0006 72.8239 54.0006H61.7315V41.5356H56.3883V58.6749H87.9771C96.8468 58.6749 96.3552 55.3026 96.3552 49.7958V41.5143H90.9907V49.0701C90.9907 51.6527 90.7556 54.0433 88.2763 54.0433H80.4326C80.9883 52.6986 81.202 51.2472 81.1165 49.8171V43.2432C81.1165 39.1237 79.3639 36.904 78.1671 36.4771C79.2357 35.602 79.941 34.364 80.1547 33.0193C80.6249 28.6224 80.5822 24.1829 80.0051 19.786H87.7206C90.9479 19.786 91.0548 21.8564 91.0548 23.0089V31.8881H96.5262V21.5362C96.5262 18.0998 95.0515 15.197 90.7983 15.197H56.6448V31.4399H61.817V19.5939H72.311C73.9139 19.5939 74.897 19.8927 74.897 22.5607V31.2905C74.897 32.6565 74.4482 33.8304 71.9262 33.8304H46.0012V4.50361V4.50361ZM41 74H112V0H41V74Z" fill="url(#paint0_radial_1_87)"/>
<path d="M73.2641 89.2196C71.9341 89.2889 70.5921 89.2889 69.262 89.2196C68.9533 89.5547 68.9533 90.0747 69.262 90.4099C69.7014 90.433 70.129 90.537 70.5327 90.7103C70.6396 90.7797 70.6277 90.9646 70.5327 91.2535L67.2313 100.602L64.2149 91.4268C64.0961 91.0223 64.108 90.7797 64.2742 90.641C64.5949 90.4792 64.9393 90.3752 65.2955 90.3405C65.5331 89.9938 65.5331 89.5431 65.2955 89.208C63.6092 89.3005 61.9229 89.3005 60.2365 89.208C59.999 89.5778 59.999 90.0401 60.2365 90.3983C60.6165 90.3636 60.9965 90.4676 61.3172 90.6872C61.6378 90.9068 61.8753 91.2304 61.9941 91.5886C62.4098 92.9753 62.5166 93.0216 62.3029 93.9807L59.7021 100.637L56.5669 91.0917C56.4006 90.4445 57.517 90.4908 57.5288 90.4908C57.802 90.1325 57.802 89.6471 57.5288 89.3005C55.9494 89.3929 54.358 89.3929 52.7786 89.3005C52.541 89.6703 52.541 90.1325 52.7786 90.4908C53.6336 90.4908 53.9543 90.4908 54.2868 91.5077C54.3818 91.8197 57.9564 102.475 58.2651 103.318C58.3126 103.492 58.4195 103.653 58.5739 103.757C58.8708 103.988 59.2864 103.988 59.5833 103.757C59.7258 103.642 59.8327 103.492 59.8921 103.318C60.4146 102.128 63.0273 95.275 63.0273 95.275C63.0273 95.275 65.1649 101.7 65.6756 103.318C65.7231 103.503 65.83 103.665 65.9843 103.78C66.2812 104.012 66.7088 104.012 67.0056 103.78C67.16 103.665 67.255 103.503 67.3025 103.318L71.5659 91.6233C71.6728 91.2535 71.9103 90.9414 72.231 90.7103C72.5397 90.4908 72.9316 90.3983 73.3116 90.4214C73.4541 90.2481 73.5373 90.0516 73.5729 89.832C73.6085 89.6125 73.5729 89.3929 73.5017 89.1849H73.276L73.2641 89.2196ZM21.1417 91.4153C21.1417 90.9414 21.3198 90.225 22.7687 90.225C23.41 90.1441 24.0513 90.3174 24.55 90.6988C25.0607 91.1032 25.4051 91.681 25.4882 92.3051C26.0939 93.7727 25.3457 95.4484 23.8375 96.0262C23.315 96.2227 22.7568 96.2804 22.2105 96.1764H21.1417V91.4037V91.4153ZM16.9496 89.7627C16.9496 89.9823 17.0327 90.2018 17.1871 90.3636C17.4127 90.3636 18.5172 90.4445 18.6359 90.6757C18.8497 91.1263 18.9447 91.6117 18.8853 92.1086C18.8853 102.024 18.9685 101.446 18.6359 102.128C18.1728 102.347 17.6503 102.44 17.1396 102.428C16.8665 102.787 16.9021 103.284 17.2109 103.619H23.0537C23.3387 103.341 23.2437 102.81 23.0537 102.428C22.5312 102.451 22.0205 102.347 21.5574 102.128C21.1655 101.735 21.2486 100.66 21.2486 97.2743C22.9468 97.1818 23.315 97.829 23.4218 97.9908C23.5287 98.1525 25.0132 100.533 25.702 101.654C25.9989 102.22 26.4383 102.706 26.9608 103.076C27.4833 103.434 28.0771 103.676 28.7184 103.757C29.0984 103.78 29.4666 103.7 29.7991 103.515C29.8941 103.284 29.8941 103.029 29.7991 102.798H29.5853C28.4096 102.856 28.1246 101.897 25.1319 96.916C25.9039 96.604 26.5689 96.084 27.032 95.4022C27.5071 94.7088 27.7683 93.8998 27.7802 93.0678C27.7802 92.5362 27.6852 92.0046 27.4833 91.5077C27.2814 91.0223 26.9846 90.5716 26.6045 90.1903C25.2151 88.8035 22.2461 89.2196 20.0966 89.2196C18.4103 89.2196 17.5434 89.1618 17.199 89.1618C17.0446 89.3236 16.9615 89.5316 16.9615 89.7627H16.9496ZM130.267 91.5077C131.324 92.3398 132.049 93.5069 132.31 94.8128C132.726 96.4653 132.714 98.1988 132.251 99.8513H132.239C131.206 102.567 127.762 102.463 127.132 102.486C126.265 102.486 124.959 102.486 124.959 101.596V91.1957C124.959 90.8143 125.054 90.3521 126.586 90.3636C127.916 90.2827 129.234 90.6872 130.267 91.4961V91.5077ZM120.921 89.7512C120.921 89.9707 121.004 90.1903 121.159 90.3521C121.658 90.329 122.156 90.433 122.596 90.6525C122.715 90.7681 122.833 91.0686 122.833 92.0971V100.73C122.833 101.804 122.655 102.105 122.596 102.163C122.156 102.405 121.658 102.509 121.159 102.463C120.838 102.798 120.838 103.318 121.159 103.653H128.023C135.671 103.584 135.255 97.0316 135.255 96.7542C135.255 95.7488 135.03 94.7435 134.638 93.819C134.246 92.8945 133.676 92.0624 132.951 91.3575C132.239 90.6641 131.396 90.121 130.457 89.7512C129.531 89.3929 128.546 89.2196 127.548 89.2542V89.208C120.66 89.208 121.824 89.1502 121.171 89.1502C121.016 89.312 120.933 89.52 120.933 89.7512H120.921ZM143.509 89.1387H140.611C140.386 89.5085 140.386 89.9707 140.611 90.329C141.134 90.3174 141.644 90.4214 142.119 90.6294C142.238 90.745 142.416 91.0455 142.416 92.0624V100.649C142.416 102.07 142.309 102.394 140.552 102.394C140.326 102.763 140.326 103.214 140.552 103.584H143.45C146.703 103.515 151.014 103.584 151.097 103.584C151.501 102.324 151.81 101.042 152 99.7357C151.596 99.5393 151.133 99.4931 150.682 99.5971C150.444 100.048 150.1 102.417 147.974 102.417H145.017C144.708 102.417 144.411 102.417 144.411 101.7V96.5925C145.421 96.5116 146.43 96.5693 147.428 96.7773C147.939 96.9854 147.974 97.4361 147.974 97.9676C148.117 98.1179 148.319 98.2103 148.52 98.2103C148.627 98.2103 148.746 98.2103 148.841 98.1525C148.948 98.1063 149.043 98.0485 149.114 97.9676C149.031 96.6733 149.031 95.3675 149.114 94.0616C148.722 93.6687 148.022 93.8767 148.022 94.0616C147.962 94.8359 147.844 95.0901 147.725 95.1479C147.404 95.4599 145.551 95.3906 144.459 95.3906V91.1263C144.459 90.7797 144.637 90.3405 145.065 90.3521H147.345C148.437 90.2712 149.126 90.8952 149.684 92.6287C149.684 92.8251 150.314 92.7904 150.706 92.6287C150.824 92.6287 150.848 92.5478 150.824 92.4553C150.587 90.8952 150.397 89.8205 150.349 89.3929C150.349 89.2773 150.349 89.1502 150.041 89.1502C149.53 89.2311 149.15 89.1502 143.485 89.1502L143.509 89.1387ZM4.20697 101.203V96.4307C6.0477 96.4307 7.2709 96.2804 8.5416 97.3898C8.87412 97.7134 9.13538 98.0832 9.30164 98.5108C9.47978 98.9384 9.56291 99.3891 9.56291 99.8398C9.69354 102.371 6.96213 102.521 5.89332 102.451H5.83393C4.3851 102.382 4.20697 101.758 4.20697 101.203ZM6.9265 90.4792C7.25902 90.5948 7.55591 90.7797 7.79343 91.0339C8.04282 91.2881 8.23283 91.577 8.35159 91.9122C8.47034 92.2473 8.51784 92.594 8.49409 92.9407C8.41096 94.4314 7.53216 95.2173 5.6083 95.2173H4.21884V91.0801C4.21884 90.6179 4.21884 90.537 4.64637 90.4214C5.06201 90.3636 5.48954 90.3405 5.91707 90.3636C6.26146 90.329 6.60586 90.3636 6.93837 90.4908L6.9265 90.4792ZM3.07877 89.1271H0.240483C0.0860988 89.2889 0.00296803 89.4969 0.00296803 89.728C0.00296803 89.9476 0.0860988 90.1672 0.240483 90.329C0.739262 90.3174 1.23804 90.4214 1.68932 90.641C1.80808 90.7565 1.92683 91.057 1.92683 92.074V100.706C1.92683 101.781 1.7487 102.082 1.68932 102.151C1.24992 102.382 0.739262 102.486 0.240483 102.451C-0.0801609 102.787 -0.0801609 103.307 0.240483 103.642H6.26146C7.8528 103.734 9.4204 103.237 10.6555 102.267C11.0117 101.874 11.2968 101.423 11.4749 100.938C11.6649 100.441 11.748 99.9091 11.7243 99.3775C11.7243 98.5108 11.4511 97.6672 10.9286 96.9738C10.418 96.292 9.66979 95.8182 8.83849 95.6102V95.5293C9.34914 95.2288 9.76479 94.8243 10.0617 94.339C10.3705 93.8421 10.5486 93.2989 10.5961 92.7211C10.5961 90.3405 8.96912 89.1387 5.77456 89.1387H3.0669L3.07877 89.1271ZM85.5911 90.9992C84.8073 91.7273 84.1898 92.6171 83.786 93.5994C83.3822 94.5932 83.1922 95.668 83.2397 96.7427C83.2278 97.933 83.4772 99.1117 83.9641 100.21C84.4748 101.307 85.2823 102.243 86.3037 102.902C87.3843 103.596 88.655 103.977 89.9614 104H90.2226C91.339 104 92.4315 103.711 93.4053 103.191C94.4029 102.659 95.2461 101.908 95.8873 100.995V100.753C95.8755 100.602 95.8042 100.464 95.6855 100.371C95.5786 100.279 95.4361 100.221 95.2817 100.221L95.3292 100.198H95.2698V100.256C94.6285 101.007 93.8328 101.631 92.9303 102.059C92.099 102.428 91.1964 102.613 90.282 102.602C89.3082 102.625 88.3582 102.29 87.6337 101.643C86.9093 100.984 86.3512 100.163 86.0186 99.2619C85.6624 98.2797 85.508 97.2396 85.5436 96.1995C85.5436 95.3906 85.6505 94.5817 85.8999 93.819C86.1018 93.1834 86.4105 92.5824 86.8024 92.0277C87.1706 91.4846 87.6575 91.0339 88.2394 90.6988C88.8094 90.3752 89.4507 90.1903 90.1158 90.1672C91.1608 90.0978 92.2059 90.4099 93.0253 91.0455C93.8685 91.6926 94.4623 92.6055 94.6879 93.6341V93.7496H94.8066C95.1154 93.8305 95.4361 93.7843 95.7092 93.6341H95.828V93.5185C95.7686 92.802 95.5786 91.6579 95.3529 90.1672V90.0516H95.1629C94.581 89.9361 94.0229 89.7858 93.4766 89.5663C92.4671 89.2542 91.4102 89.0925 90.3414 89.0809H90.3176C88.5363 89.0809 86.8381 89.7743 85.5792 90.9992H85.5911ZM109.01 102.717C108.333 102.717 107.68 102.555 107.074 102.267C106.469 101.978 105.922 101.55 105.495 101.042C104.735 99.9784 104.236 98.7535 104.034 97.4707C103.832 96.1764 103.927 94.859 104.331 93.6109C104.509 92.7211 104.972 91.9122 105.649 91.2997C106.314 90.6988 107.157 90.3405 108.06 90.2596C108.737 90.2596 109.414 90.4099 110.019 90.7103C110.637 91.0108 111.171 91.4615 111.575 92.0046C113.463 94.7319 113.582 98.2681 111.884 101.111H111.979C111.658 101.608 111.231 102.012 110.708 102.301C110.198 102.579 109.616 102.729 109.034 102.729L109.01 102.717ZM108.606 89H108.464C104.26 89 101.623 92.3513 101.6 96.7311C101.576 97.6787 101.73 98.6148 102.075 99.5046C102.419 100.383 102.93 101.18 103.595 101.862C104.248 102.532 105.032 103.052 105.91 103.411C106.777 103.757 107.704 103.931 108.642 103.896C113.618 103.977 115.672 99.7935 115.672 96.3498C115.696 95.3906 115.53 94.443 115.185 93.5416C114.841 92.6518 114.318 91.8428 113.653 91.161C113 90.4792 112.216 89.9361 111.338 89.5663C110.483 89.208 109.568 89.0116 108.63 89.0116H108.594L108.606 89ZM40.2497 102.29C39.644 102.001 39.0978 101.573 38.6702 101.065C37.9102 100.002 37.4114 98.7766 37.2095 97.4938C37.0076 96.1995 37.1026 94.8821 37.5064 93.6341C37.6845 92.7442 38.1477 91.9353 38.8246 91.3228C39.4897 90.7219 40.3447 90.3636 41.2473 90.2827C41.9242 90.2827 42.6011 90.433 43.2068 90.7334C43.8243 91.0339 44.3587 91.4846 44.7625 92.0162C46.6507 94.7435 46.7695 98.2797 45.0594 101.122H45.1306C44.81 101.619 44.3824 102.024 43.8599 102.313C43.3493 102.59 42.7792 102.74 42.1854 102.74C41.5085 102.74 40.8554 102.579 40.2497 102.29ZM41.7935 89.0116H41.6154C37.4114 89.0116 34.775 92.3629 34.7513 96.7427C34.7156 97.6903 34.8819 98.6263 35.2263 99.5162C35.5588 100.394 36.0813 101.192 36.7464 101.874C37.3995 102.544 38.1952 103.064 39.074 103.422C39.9409 103.769 40.8672 103.942 41.8054 103.908C46.7813 103.988 48.8358 99.8051 48.8358 96.3613C48.8596 95.4022 48.6814 94.443 48.3371 93.5416C47.9927 92.6518 47.4701 91.8313 46.7932 91.1379C46.1282 90.4561 45.3325 89.9129 44.4418 89.5431C43.6105 89.1965 42.708 89.0116 41.8054 89.0116H41.7935Z" fill="url(#paint1_radial_1_87)"/>
<path d="M73.2641 89.2196C71.9341 89.2889 70.5921 89.2889 69.262 89.2196C68.9533 89.5547 68.9533 90.0747 69.262 90.4099C69.7014 90.433 70.129 90.537 70.5327 90.7103C70.6396 90.7797 70.6277 90.9646 70.5327 91.2535L67.2313 100.602L64.2149 91.4268C64.0961 91.0223 64.108 90.7797 64.2742 90.641C64.5949 90.4792 64.9393 90.3752 65.2955 90.3405C65.5331 89.9938 65.5331 89.5431 65.2955 89.208C63.6092 89.3005 61.9229 89.3005 60.2365 89.208C59.999 89.5778 59.999 90.0401 60.2365 90.3983C60.6165 90.3636 60.9965 90.4676 61.3172 90.6872C61.6378 90.9068 61.8753 91.2304 61.9941 91.5886C62.4098 92.9753 62.5166 93.0216 62.3029 93.9807L59.7021 100.637L56.5669 91.0917C56.4006 90.4445 57.517 90.4908 57.5288 90.4908C57.802 90.1325 57.802 89.6471 57.5288 89.3005C55.9494 89.3929 54.358 89.3929 52.7786 89.3005C52.541 89.6703 52.541 90.1325 52.7786 90.4908C53.6336 90.4908 53.9543 90.4908 54.2868 91.5077C54.3818 91.8197 57.9564 102.475 58.2651 103.318C58.3126 103.492 58.4195 103.653 58.5739 103.757C58.8708 103.988 59.2864 103.988 59.5833 103.757C59.7258 103.642 59.8327 103.492 59.8921 103.318C60.4146 102.128 63.0273 95.275 63.0273 95.275C63.0273 95.275 65.1649 101.7 65.6756 103.318C65.7231 103.503 65.83 103.665 65.9843 103.78C66.2812 104.012 66.7088 104.012 67.0056 103.78C67.16 103.665 67.255 103.503 67.3025 103.318L71.5659 91.6233C71.6728 91.2535 71.9103 90.9414 72.231 90.7103C72.5397 90.4908 72.9316 90.3983 73.3116 90.4214C73.4541 90.2481 73.5373 90.0516 73.5729 89.832C73.6085 89.6125 73.5729 89.3929 73.5017 89.1849H73.276L73.2641 89.2196ZM21.1417 91.4153C21.1417 90.9414 21.3198 90.225 22.7687 90.225C23.41 90.1441 24.0513 90.3174 24.55 90.6988C25.0607 91.1032 25.4051 91.681 25.4882 92.3051C26.0939 93.7727 25.3457 95.4484 23.8375 96.0262C23.315 96.2227 22.7568 96.2804 22.2105 96.1764H21.1417V91.4037V91.4153ZM16.9496 89.7627C16.9496 89.9823 17.0327 90.2018 17.1871 90.3636C17.4127 90.3636 18.5172 90.4445 18.6359 90.6757C18.8497 91.1263 18.9447 91.6117 18.8853 92.1086C18.8853 102.024 18.9685 101.446 18.6359 102.128C18.1728 102.347 17.6503 102.44 17.1396 102.428C16.8665 102.787 16.9021 103.284 17.2109 103.619H23.0537C23.3387 103.341 23.2437 102.81 23.0537 102.428C22.5312 102.451 22.0205 102.347 21.5574 102.128C21.1655 101.735 21.2486 100.66 21.2486 97.2743C22.9468 97.1818 23.315 97.829 23.4218 97.9908C23.5287 98.1525 25.0132 100.533 25.702 101.654C25.9989 102.22 26.4383 102.706 26.9608 103.076C27.4833 103.434 28.0771 103.676 28.7184 103.757C29.0984 103.78 29.4666 103.7 29.7991 103.515C29.8941 103.284 29.8941 103.029 29.7991 102.798H29.5853C28.4096 102.856 28.1246 101.897 25.1319 96.916C25.9039 96.604 26.5689 96.084 27.032 95.4022C27.5071 94.7088 27.7683 93.8998 27.7802 93.0678C27.7802 92.5362 27.6852 92.0046 27.4833 91.5077C27.2814 91.0223 26.9846 90.5716 26.6045 90.1903C25.2151 88.8035 22.2461 89.2196 20.0966 89.2196C18.4103 89.2196 17.5434 89.1618 17.199 89.1618C17.0446 89.3236 16.9615 89.5316 16.9615 89.7627H16.9496ZM130.267 91.5077C131.324 92.3398 132.049 93.5069 132.31 94.8128C132.726 96.4653 132.714 98.1988 132.251 99.8513H132.239C131.206 102.567 127.762 102.463 127.132 102.486C126.265 102.486 124.959 102.486 124.959 101.596V91.1957C124.959 90.8143 125.054 90.3521 126.586 90.3636C127.916 90.2827 129.234 90.6872 130.267 91.4961V91.5077ZM120.921 89.7512C120.921 89.9707 121.004 90.1903 121.159 90.3521C121.658 90.329 122.156 90.433 122.596 90.6525C122.715 90.7681 122.833 91.0686 122.833 92.0971V100.73C122.833 101.804 122.655 102.105 122.596 102.163C122.156 102.405 121.658 102.509 121.159 102.463C120.838 102.798 120.838 103.318 121.159 103.653H128.023C135.671 103.584 135.255 97.0316 135.255 96.7542C135.255 95.7488 135.03 94.7435 134.638 93.819C134.246 92.8945 133.676 92.0624 132.951 91.3575C132.239 90.6641 131.396 90.121 130.457 89.7512C129.531 89.3929 128.546 89.2196 127.548 89.2542V89.208C120.66 89.208 121.824 89.1502 121.171 89.1502C121.016 89.312 120.933 89.52 120.933 89.7512H120.921ZM143.509 89.1387H140.611C140.386 89.5085 140.386 89.9707 140.611 90.329C141.134 90.3174 141.644 90.4214 142.119 90.6294C142.238 90.745 142.416 91.0455 142.416 92.0624V100.649C142.416 102.07 142.309 102.394 140.552 102.394C140.326 102.763 140.326 103.214 140.552 103.584H143.45C146.703 103.515 151.014 103.584 151.097 103.584C151.501 102.324 151.81 101.042 152 99.7357C151.596 99.5393 151.133 99.4931 150.682 99.5971C150.444 100.048 150.1 102.417 147.974 102.417H145.017C144.708 102.417 144.411 102.417 144.411 101.7V96.5925C145.421 96.5116 146.43 96.5693 147.428 96.7773C147.939 96.9854 147.974 97.4361 147.974 97.9676C148.117 98.1179 148.319 98.2103 148.52 98.2103C148.627 98.2103 148.746 98.2103 148.841 98.1525C148.948 98.1063 149.043 98.0485 149.114 97.9676C149.031 96.6733 149.031 95.3675 149.114 94.0616C148.722 93.6687 148.022 93.8767 148.022 94.0616C147.962 94.8359 147.844 95.0901 147.725 95.1479C147.404 95.4599 145.551 95.3906 144.459 95.3906V91.1263C144.459 90.7797 144.637 90.3405 145.065 90.3521H147.345C148.437 90.2712 149.126 90.8952 149.684 92.6287C149.684 92.8251 150.314 92.7904 150.706 92.6287C150.824 92.6287 150.848 92.5478 150.824 92.4553C150.587 90.8952 150.397 89.8205 150.349 89.3929C150.349 89.2773 150.349 89.1502 150.041 89.1502C149.53 89.2311 149.15 89.1502 143.485 89.1502L143.509 89.1387ZM4.20697 101.203V96.4307C6.0477 96.4307 7.2709 96.2804 8.5416 97.3898C8.87412 97.7134 9.13538 98.0832 9.30164 98.5108C9.47978 98.9384 9.56291 99.3891 9.56291 99.8398C9.69354 102.371 6.96213 102.521 5.89332 102.451H5.83393C4.3851 102.382 4.20697 101.758 4.20697 101.203ZM6.9265 90.4792C7.25902 90.5948 7.55591 90.7797 7.79343 91.0339C8.04282 91.2881 8.23283 91.577 8.35159 91.9122C8.47034 92.2473 8.51784 92.594 8.49409 92.9407C8.41096 94.4314 7.53216 95.2173 5.6083 95.2173H4.21884V91.0801C4.21884 90.6179 4.21884 90.537 4.64637 90.4214C5.06201 90.3636 5.48954 90.3405 5.91707 90.3636C6.26146 90.329 6.60586 90.3636 6.93837 90.4908L6.9265 90.4792ZM3.07877 89.1271H0.240483C0.0860988 89.2889 0.00296803 89.4969 0.00296803 89.728C0.00296803 89.9476 0.0860988 90.1672 0.240483 90.329C0.739262 90.3174 1.23804 90.4214 1.68932 90.641C1.80808 90.7565 1.92683 91.057 1.92683 92.074V100.706C1.92683 101.781 1.7487 102.082 1.68932 102.151C1.24992 102.382 0.739262 102.486 0.240483 102.451C-0.0801609 102.787 -0.0801609 103.307 0.240483 103.642H6.26146C7.8528 103.734 9.4204 103.237 10.6555 102.267C11.0117 101.874 11.2968 101.423 11.4749 100.938C11.6649 100.441 11.748 99.9091 11.7243 99.3775C11.7243 98.5108 11.4511 97.6672 10.9286 96.9738C10.418 96.292 9.66979 95.8182 8.83849 95.6102V95.5293C9.34914 95.2288 9.76479 94.8243 10.0617 94.339C10.3705 93.8421 10.5486 93.2989 10.5961 92.7211C10.5961 90.3405 8.96912 89.1387 5.77456 89.1387H3.0669L3.07877 89.1271ZM85.5911 90.9992C84.8073 91.7273 84.1898 92.6171 83.786 93.5994C83.3822 94.5932 83.1922 95.668 83.2397 96.7427C83.2278 97.933 83.4772 99.1117 83.9641 100.21C84.4748 101.307 85.2823 102.243 86.3037 102.902C87.3843 103.596 88.655 103.977 89.9614 104H90.2226C91.339 104 92.4315 103.711 93.4053 103.191C94.4029 102.659 95.2461 101.908 95.8873 100.995V100.753C95.8755 100.602 95.8042 100.464 95.6855 100.371C95.5786 100.279 95.4361 100.221 95.2817 100.221L95.3292 100.198H95.2698V100.256C94.6285 101.007 93.8328 101.631 92.9303 102.059C92.099 102.428 91.1964 102.613 90.282 102.602C89.3082 102.625 88.3582 102.29 87.6337 101.643C86.9093 100.984 86.3512 100.163 86.0186 99.2619C85.6624 98.2797 85.508 97.2396 85.5436 96.1995C85.5436 95.3906 85.6505 94.5817 85.8999 93.819C86.1018 93.1834 86.4105 92.5824 86.8024 92.0277C87.1706 91.4846 87.6575 91.0339 88.2394 90.6988C88.8094 90.3752 89.4507 90.1903 90.1158 90.1672C91.1608 90.0978 92.2059 90.4099 93.0253 91.0455C93.8685 91.6926 94.4623 92.6055 94.6879 93.6341V93.7496H94.8066C95.1154 93.8305 95.4361 93.7843 95.7092 93.6341H95.828V93.5185C95.7686 92.802 95.5786 91.6579 95.3529 90.1672V90.0516H95.1629C94.581 89.9361 94.0229 89.7858 93.4766 89.5663C92.4671 89.2542 91.4102 89.0925 90.3414 89.0809H90.3176C88.5363 89.0809 86.8381 89.7743 85.5792 90.9992H85.5911ZM109.01 102.717C108.333 102.717 107.68 102.555 107.074 102.267C106.469 101.978 105.922 101.55 105.495 101.042C104.735 99.9784 104.236 98.7535 104.034 97.4707C103.832 96.1764 103.927 94.859 104.331 93.6109C104.509 92.7211 104.972 91.9122 105.649 91.2997C106.314 90.6988 107.157 90.3405 108.06 90.2596C108.737 90.2596 109.414 90.4099 110.019 90.7103C110.637 91.0108 111.171 91.4615 111.575 92.0046C113.463 94.7319 113.582 98.2681 111.884 101.111H111.979C111.658 101.608 111.231 102.012 110.708 102.301C110.198 102.579 109.616 102.729 109.034 102.729L109.01 102.717ZM108.606 89H108.464C104.26 89 101.623 92.3513 101.6 96.7311C101.576 97.6787 101.73 98.6148 102.075 99.5046C102.419 100.383 102.93 101.18 103.595 101.862C104.248 102.532 105.032 103.052 105.91 103.411C106.777 103.757 107.704 103.931 108.642 103.896C113.618 103.977 115.672 99.7935 115.672 96.3498C115.696 95.3906 115.53 94.443 115.185 93.5416C114.841 92.6518 114.318 91.8428 113.653 91.161C113 90.4792 112.216 89.9361 111.338 89.5663C110.483 89.208 109.568 89.0116 108.63 89.0116H108.594L108.606 89ZM40.2497 102.29C39.644 102.001 39.0978 101.573 38.6702 101.065C37.9102 100.002 37.4114 98.7766 37.2095 97.4938C37.0076 96.1995 37.1026 94.8821 37.5064 93.6341C37.6845 92.7442 38.1477 91.9353 38.8246 91.3228C39.4897 90.7219 40.3447 90.3636 41.2473 90.2827C41.9242 90.2827 42.6011 90.433 43.2068 90.7334C43.8243 91.0339 44.3587 91.4846 44.7625 92.0162C46.6507 94.7435 46.7695 98.2797 45.0594 101.122H45.1306C44.81 101.619 44.3824 102.024 43.8599 102.313C43.3493 102.59 42.7792 102.74 42.1854 102.74C41.5085 102.74 40.8554 102.579 40.2497 102.29ZM41.7935 89.0116H41.6154C37.4114 89.0116 34.775 92.3629 34.7513 96.7427C34.7156 97.6903 34.8819 98.6263 35.2263 99.5162C35.5588 100.394 36.0813 101.192 36.7464 101.874C37.3995 102.544 38.1952 103.064 39.074 103.422C39.9409 103.769 40.8672 103.942 41.8054 103.908C46.7813 103.988 48.8358 99.8051 48.8358 96.3613C48.8596 95.4022 48.6814 94.443 48.3371 93.5416C47.9927 92.6518 47.4701 91.8313 46.7932 91.1379C46.1282 90.4561 45.3325 89.9129 44.4418 89.5431C43.6105 89.1965 42.708 89.0116 41.8054 89.0116H41.7935Z" fill="url(#paint2_radial_1_87)"/>
<path d="M47.1779 116.333V119.556H50.551V120.667H47.1779V124.833H46V115.167H51.4344V116.333H47.1779Z" fill="#C5C5C5"/>
<path d="M59.3931 125C58.4919 125 57.72 124.792 57.0775 124.375C56.4439 123.958 55.9576 123.375 55.6185 122.625C55.2883 121.875 55.1233 121 55.1233 120C55.1233 119 55.2883 118.125 55.6185 117.375C55.9576 116.625 56.4439 116.042 57.0775 115.625C57.72 115.208 58.4919 115 59.3931 115C60.2944 115 61.0618 115.208 61.6954 115.625C62.3379 116.042 62.8242 116.625 63.1544 117.375C63.4935 118.125 63.663 119 63.663 120C63.663 121 63.4935 121.875 63.1544 122.625C62.8242 123.375 62.3379 123.958 61.6954 124.375C61.0618 124.792 60.2944 125 59.3931 125ZM59.3931 123.889C60.3926 123.889 61.1421 123.542 61.6418 122.847C62.1416 122.144 62.3914 121.194 62.3914 120C62.3914 118.806 62.1416 117.861 61.6418 117.167C61.1421 116.463 60.3926 116.111 59.3931 116.111C58.3937 116.111 57.6441 116.463 57.1444 117.167C56.6447 117.861 56.3948 118.806 56.3948 120C56.3948 121.194 56.6447 122.144 57.1444 122.847C57.6441 123.542 58.3937 123.889 59.3931 123.889Z" fill="#C5C5C5"/>
<path d="M73.4453 124.833L71.558 121.042H71.4241H69.2825V124.833H68.1046V115.167H71.2635C72.3789 115.167 73.2088 115.412 73.7531 115.903C74.2975 116.384 74.5696 117.093 74.5696 118.028C74.5696 118.722 74.4224 119.31 74.1279 119.792C73.8334 120.273 73.4007 120.616 72.8296 120.819L74.8641 124.833H73.4453ZM71.2769 119.889C71.9729 119.889 72.4815 119.75 72.8028 119.472C73.1329 119.185 73.298 118.704 73.298 118.028C73.298 117.407 73.1329 116.972 72.8028 116.722C72.4815 116.463 71.9684 116.333 71.2635 116.333H69.2825V119.889H71.2769Z" fill="#C5C5C5"/>
<path d="M96.674 124.833H95.4961V116.222L92.4576 124.833H91.1726L88.0807 116.278V124.833H86.9028V115.167H88.9641L91.8419 123.125L94.6528 115.167H96.674V124.833Z" fill="#C5C5C5"/>
<path d="M102.623 116.333V119.389H106.706V120.5H102.623V123.667H107V124.833H101.445V115.167H107V116.333H102.623Z" fill="#C5C5C5"/>
<defs>
<radialGradient id="paint0_radial_1_87" cx="0" cy="0" r="1" gradientUnits="userSpaceOnUse" gradientTransform="translate(123.285 29.8817) rotate(162.496) scale(149.029 80.6319)">
<stop offset="0.122984" stop-color="#C3A355"/>
<stop offset="1" stop-color="#FBF7B0"/>
</radialGradient>
<radialGradient id="paint1_radial_1_87" cx="0" cy="0" r="1" gradientUnits="userSpaceOnUse" gradientTransform="translate(70.0666 113.268) rotate(-110.805) scale(73.556 130.543)">
<stop stop-color="#C3A355"/>
<stop offset="1" stop-color="#FBF7B0"/>
<stop offset="1" stop-color="#FBF7B0"/>
</radialGradient>
<radialGradient id="paint2_radial_1_87" cx="0" cy="0" r="1" gradientUnits="userSpaceOnUse" gradientTransform="translate(68.2852 79.755) rotate(33.3927) scale(44.0938 21.1691)">
<stop stop-color="#FBF7B0"/>
<stop stop-color="#FBF7B0" stop-opacity="0.722018"/>
<stop offset="1" stop-color="#FBF7B0" stop-opacity="0"/>
</radialGradient>
</defs>
</svg>
