<svg width="172" height="35" viewBox="0 0 172 35" fill="none" xmlns="http://www.w3.org/2000/svg">
<g clip-path="url(#clip0_1_157)">
<path d="M60 23.1167H62.1651C63.8256 23.1167 64.6558 23.8556 64.6558 25.3333C64.6558 26.0787 64.4483 26.6491 64.0332 27.0444C63.6244 27.4333 63.0241 27.6278 62.2321 27.6278H60.843V29.8833H60V23.1167ZM62.2034 26.8306C62.7526 26.8306 63.1454 26.7171 63.3817 26.4903C63.6244 26.2634 63.7458 25.8907 63.7458 25.3722C63.7458 24.8537 63.6244 24.4843 63.3817 24.2639C63.1454 24.0435 62.7399 23.9333 62.1651 23.9333H60.843V26.8306H62.2034Z" fill="#C5C5C5"/>
<path d="M72.0626 29.8833L70.7119 27.2292H70.6161H69.0833V29.8833H68.2402V23.1167H70.5011C71.2994 23.1167 71.8934 23.2884 72.283 23.6319C72.6726 23.969 72.8673 24.4648 72.8673 25.1194C72.8673 25.6056 72.762 26.0171 72.5512 26.3542C72.3405 26.6912 72.0307 26.931 71.622 27.0736L73.0781 29.8833H72.0626ZM70.5107 26.4222C71.0088 26.4222 71.3729 26.325 71.6028 26.1306C71.8391 25.9296 71.9573 25.5926 71.9573 25.1194C71.9573 24.6852 71.8391 24.3806 71.6028 24.2056C71.3729 24.0241 71.0056 23.9333 70.5011 23.9333H69.0833V26.4222H70.5107Z" fill="#C5C5C5"/>
<path d="M79.6901 30C79.0451 30 78.4926 29.8542 78.0328 29.5625C77.5794 29.2708 77.2313 28.8625 76.9886 28.3375C76.7523 27.8125 76.6341 27.2 76.6341 26.5C76.6341 25.8 76.7523 25.1875 76.9886 24.6625C77.2313 24.1375 77.5794 23.7292 78.0328 23.4375C78.4926 23.1458 79.0451 23 79.6901 23C80.3352 23 80.8844 23.1458 81.3379 23.4375C81.7977 23.7292 82.1458 24.1375 82.3821 24.6625C82.6248 25.1875 82.7461 25.8 82.7461 26.5C82.7461 27.2 82.6248 27.8125 82.3821 28.3375C82.1458 28.8625 81.7977 29.2708 81.3379 29.5625C80.8844 29.8542 80.3352 30 79.6901 30ZM79.6901 29.2222C80.4054 29.2222 80.9419 28.9792 81.2996 28.4931C81.6572 28.0005 81.836 27.3361 81.836 26.5C81.836 25.6639 81.6572 25.0028 81.2996 24.5167C80.9419 24.0241 80.4054 23.7778 79.6901 23.7778C78.9748 23.7778 78.4384 24.0241 78.0807 24.5167C77.7231 25.0028 77.5442 25.6639 77.5442 26.5C77.5442 27.3361 77.7231 28.0005 78.0807 28.4931C78.4384 28.9792 78.9748 29.2222 79.6901 29.2222Z" fill="#C5C5C5"/>
<path d="M87.6687 23.9333V26.1889H90.0829V26.9667H87.6687V29.8833H86.8257V23.1167H90.7151V23.9333H87.6687Z" fill="#C5C5C5"/>
<path d="M95.3289 23.9333V26.0722H98.2508V26.85H95.3289V29.0667H98.4616V29.8833H94.4859V23.1167H98.4616V23.9333H95.3289Z" fill="#C5C5C5"/>
<path d="M104.455 30C104.085 30 103.698 29.9514 103.296 29.8542C102.894 29.7569 102.514 29.6241 102.156 29.4556V28.5319C102.578 28.7653 102.967 28.937 103.325 29.0472C103.689 29.1574 104.046 29.2125 104.398 29.2125C104.838 29.2125 105.18 29.112 105.423 28.9111C105.666 28.7102 105.787 28.4347 105.787 28.0847C105.787 27.8449 105.72 27.644 105.586 27.4819C105.452 27.3199 105.282 27.1903 105.078 27.0931C104.874 26.9958 104.599 26.8889 104.254 26.7722C103.839 26.6296 103.504 26.4935 103.248 26.3639C102.999 26.2343 102.785 26.0495 102.606 25.8097C102.427 25.5699 102.338 25.2588 102.338 24.8764C102.338 24.306 102.542 23.8523 102.951 23.5153C103.36 23.1718 103.909 23 104.599 23C105.27 23 105.886 23.1458 106.448 23.4375V24.3319C105.816 23.969 105.199 23.7875 104.599 23.7875C104.158 23.7875 103.813 23.8782 103.564 24.0597C103.315 24.2347 103.191 24.4778 103.191 24.7889C103.191 25.0028 103.255 25.181 103.382 25.3236C103.51 25.4662 103.666 25.5829 103.852 25.6736C104.037 25.7579 104.299 25.8616 104.637 25.9847C105.059 26.1273 105.404 26.2667 105.672 26.4028C105.94 26.5389 106.167 26.7366 106.352 26.9958C106.544 27.2551 106.639 27.5889 106.639 27.9972C106.639 28.3991 106.55 28.7523 106.371 29.0569C106.192 29.3551 105.937 29.5884 105.605 29.7569C105.273 29.919 104.89 30 104.455 30Z" fill="#C5C5C5"/>
<path d="M112.499 30C112.129 30 111.742 29.9514 111.34 29.8542C110.937 29.7569 110.557 29.6241 110.2 29.4556V28.5319C110.621 28.7653 111.011 28.937 111.369 29.0472C111.733 29.1574 112.09 29.2125 112.442 29.2125C112.882 29.2125 113.224 29.112 113.467 28.9111C113.709 28.7102 113.831 28.4347 113.831 28.0847C113.831 27.8449 113.764 27.644 113.629 27.4819C113.495 27.3199 113.326 27.1903 113.122 27.0931C112.917 26.9958 112.643 26.8889 112.298 26.7722C111.883 26.6296 111.547 26.4935 111.292 26.3639C111.043 26.2343 110.829 26.0495 110.65 25.8097C110.471 25.5699 110.382 25.2588 110.382 24.8764C110.382 24.306 110.586 23.8523 110.995 23.5153C111.404 23.1718 111.953 23 112.643 23C113.313 23 113.93 23.1458 114.492 23.4375V24.3319C113.859 23.969 113.243 23.7875 112.643 23.7875C112.202 23.7875 111.857 23.8782 111.608 24.0597C111.359 24.2347 111.234 24.4778 111.234 24.7889C111.234 25.0028 111.298 25.181 111.426 25.3236C111.554 25.4662 111.71 25.5829 111.895 25.6736C112.081 25.7579 112.343 25.8616 112.681 25.9847C113.103 26.1273 113.447 26.2667 113.716 26.4028C113.984 26.5389 114.211 26.7366 114.396 26.9958C114.587 27.2551 114.683 27.5889 114.683 27.9972C114.683 28.3991 114.594 28.7523 114.415 29.0569C114.236 29.3551 113.981 29.5884 113.649 29.7569C113.317 29.919 112.933 30 112.499 30Z" fill="#C5C5C5"/>
<path d="M118.531 23.1167H119.374V29.8833H118.531V23.1167Z" fill="#C5C5C5"/>
<path d="M126.428 30C125.783 30 125.23 29.8542 124.771 29.5625C124.317 29.2708 123.969 28.8625 123.726 28.3375C123.49 27.8125 123.372 27.2 123.372 26.5C123.372 25.8 123.49 25.1875 123.726 24.6625C123.969 24.1375 124.317 23.7292 124.771 23.4375C125.23 23.1458 125.783 23 126.428 23C127.073 23 127.622 23.1458 128.076 23.4375C128.535 23.7292 128.884 24.1375 129.12 24.6625C129.363 25.1875 129.484 25.8 129.484 26.5C129.484 27.2 129.363 27.8125 129.12 28.3375C128.884 28.8625 128.535 29.2708 128.076 29.5625C127.622 29.8542 127.073 30 126.428 30ZM126.428 29.2222C127.143 29.2222 127.68 28.9792 128.037 28.4931C128.395 28.0005 128.574 27.3361 128.574 26.5C128.574 25.6639 128.395 25.0028 128.037 24.5167C127.68 24.0241 127.143 23.7778 126.428 23.7778C125.713 23.7778 125.176 24.0241 124.818 24.5167C124.461 25.0028 124.282 25.6639 124.282 26.5C124.282 27.3361 124.461 28.0005 124.818 28.4931C125.176 28.9792 125.713 29.2222 126.428 29.2222Z" fill="#C5C5C5"/>
<path d="M138.832 23.1167V29.8833H137.989L134.406 24.6625V29.8833H133.563V23.1167H134.406L137.989 28.3375V23.1167H138.832Z" fill="#C5C5C5"/>
<path d="M147.069 28.0944H143.86L143.18 29.8833H142.337L144.904 23.1167H146.073L148.64 29.8833H147.749L147.069 28.0944ZM146.791 27.3653L145.469 23.8653L144.138 27.3653H146.791Z" fill="#C5C5C5"/>
<path d="M152.149 23.1167H152.992V29.0667H156V29.8833H152.149V23.1167Z" fill="#C5C5C5"/>
<path d="M3.49 3.41V14.8H6.05V5.99H27.16V28.61H6.05V19.39H3.49V31.15H29.72V3.41H3.49ZM2.34 2.11H31V32.27H2.34L2.28 18.11H14.44C15.38 18.11 15.83 18.25 16 18.54C16.17 18.83 16.28 18.8 16.28 20.37V22.98C16.28 24.87 15.87 25.3 14.89 25.3H9.7V19.46H7.2V27.49H21.98C26.13 27.49 25.9 25.91 25.9 23.33V19.45H23.39V22.99C23.39 24.2 23.28 25.32 22.12 25.32H18.45C18.71 24.69 18.81 24.01 18.77 23.34V20.26C18.77 18.33 17.95 17.29 17.39 17.09C17.89 16.68 18.22 16.1 18.32 15.47C18.54 13.41 18.52 11.33 18.25 9.27H21.86C23.37 9.27 23.42 10.24 23.42 10.78V14.94H25.98V10.09C25.98 8.48 25.29 7.12 23.3 7.12H7.32V14.73H9.74V9.18H14.65C15.4 9.18 15.86 9.32 15.86 10.57V14.66C15.86 15.3 15.65 15.85 14.47 15.85H2.34V2.11V2.11ZM0 34.67H33.22V0H0V34.67Z" fill="url(#paint0_radial_1_157)"/>
<path d="M105.692 5.19C104.572 5.25 103.443 5.25 102.323 5.19C102.063 5.48 102.063 5.93 102.323 6.22C102.693 6.24 103.053 6.33 103.393 6.48C103.483 6.54 103.473 6.7 103.393 6.95L100.613 15.04L98.0725 7.1C97.9725 6.75 97.9825 6.54 98.1225 6.42C98.3925 6.28 98.6825 6.19 98.9825 6.16C99.1825 5.86 99.1825 5.47 98.9825 5.18C97.5625 5.26 96.1425 5.26 94.7225 5.18C94.5225 5.5 94.5225 5.9 94.7225 6.21C95.0425 6.18 95.3625 6.27 95.6325 6.46C95.9025 6.65 96.1025 6.93 96.2025 7.24C96.5525 8.44 96.6425 8.48 96.4625 9.31L94.2725 15.07L91.6325 6.81C91.4925 6.25 92.4325 6.29 92.4425 6.29C92.6725 5.98 92.6725 5.56 92.4425 5.26C91.1125 5.34 89.7725 5.34 88.4425 5.26C88.2425 5.58 88.2425 5.98 88.4425 6.29C89.1625 6.29 89.4325 6.29 89.7125 7.17C89.7925 7.44 92.8025 16.66 93.0625 17.39C93.1025 17.54 93.1925 17.68 93.3225 17.77C93.5725 17.97 93.9225 17.97 94.1725 17.77C94.2925 17.67 94.3825 17.54 94.4325 17.39C94.8725 16.36 97.0725 10.43 97.0725 10.43C97.0725 10.43 98.8725 15.99 99.3025 17.39C99.3425 17.55 99.4325 17.69 99.5625 17.79C99.8125 17.99 100.173 17.99 100.423 17.79C100.553 17.69 100.633 17.55 100.673 17.39L104.262 7.27C104.352 6.95 104.553 6.68 104.823 6.48C105.083 6.29 105.412 6.21 105.732 6.23C105.852 6.08 105.922 5.91 105.952 5.72C105.982 5.53 105.953 5.34 105.893 5.16H105.702L105.692 5.19ZM61.8025 7.09C61.8025 6.68 61.9525 6.06 63.1725 6.06C63.7125 5.99 64.2525 6.14 64.6725 6.47C65.1025 6.82 65.3925 7.32 65.4625 7.86C65.9725 9.13 65.3425 10.58 64.0725 11.08C63.6325 11.25 63.1625 11.3 62.7025 11.21H61.8025V7.08V7.09ZM58.2725 5.66C58.2725 5.85 58.3425 6.04 58.4725 6.18C58.6625 6.18 59.5925 6.25 59.6925 6.45C59.8725 6.84 59.9525 7.26 59.9025 7.69C59.9025 16.27 59.9725 15.77 59.6925 16.36C59.3025 16.55 58.8625 16.63 58.4325 16.62C58.2025 16.93 58.2325 17.36 58.4925 17.65H63.4125C63.6525 17.41 63.5725 16.95 63.4125 16.62C62.9725 16.64 62.5425 16.55 62.1525 16.36C61.8225 16.02 61.8925 15.09 61.8925 12.16C63.3225 12.08 63.6325 12.64 63.7225 12.78C63.8125 12.92 65.0625 14.98 65.6425 15.95C65.8925 16.44 66.2625 16.86 66.7025 17.18C67.1425 17.49 67.6425 17.7 68.1825 17.77C68.5025 17.79 68.8125 17.72 69.0925 17.56C69.1725 17.36 69.1725 17.14 69.0925 16.94H68.9125C67.9225 16.99 67.6825 16.16 65.1625 11.85C65.8125 11.58 66.3725 11.13 66.7625 10.54C67.1625 9.94 67.3825 9.24 67.3925 8.52C67.3925 8.06 67.3125 7.6 67.1425 7.17C66.9725 6.75 66.7225 6.36 66.4025 6.03C65.2325 4.83 62.7325 5.19 60.9225 5.19C59.5025 5.19 58.7725 5.14 58.4825 5.14C58.3525 5.28 58.2825 5.46 58.2825 5.66H58.2725ZM153.692 7.17C154.582 7.89 155.192 8.9 155.412 10.03C155.762 11.46 155.752 12.96 155.362 14.39H155.353C154.483 16.74 151.582 16.65 151.052 16.67C150.322 16.67 149.222 16.67 149.222 15.9V6.9C149.222 6.57 149.303 6.17 150.593 6.18C151.713 6.11 152.822 6.46 153.692 7.16V7.17ZM145.823 5.65C145.823 5.84 145.892 6.03 146.022 6.17C146.442 6.15 146.863 6.24 147.233 6.43C147.333 6.53 147.433 6.79 147.433 7.68V15.15C147.433 16.08 147.283 16.34 147.233 16.39C146.863 16.6 146.442 16.69 146.022 16.65C145.752 16.94 145.752 17.39 146.022 17.68H151.802C158.242 17.62 157.892 11.95 157.892 11.71C157.892 10.84 157.703 9.97 157.373 9.17C157.043 8.37 156.563 7.65 155.953 7.04C155.353 6.44 154.643 5.97 153.853 5.65C153.073 5.34 152.243 5.19 151.403 5.22V5.18C145.603 5.18 146.582 5.13 146.032 5.13C145.902 5.27 145.832 5.45 145.832 5.65H145.823ZM164.843 5.12H162.403C162.213 5.44 162.213 5.84 162.403 6.15C162.843 6.14 163.272 6.23 163.672 6.41C163.772 6.51 163.922 6.77 163.922 7.65V15.08C163.922 16.31 163.833 16.59 162.353 16.59C162.163 16.91 162.163 17.3 162.353 17.62H164.793C167.533 17.56 171.163 17.62 171.233 17.62C171.573 16.53 171.833 15.42 171.993 14.29C171.653 14.12 171.262 14.08 170.882 14.17C170.682 14.56 170.393 16.61 168.603 16.61H166.112C165.852 16.61 165.603 16.61 165.603 15.99V11.57C166.453 11.5 167.302 11.55 168.142 11.73C168.572 11.91 168.603 12.3 168.603 12.76C168.723 12.89 168.893 12.97 169.063 12.97C169.153 12.97 169.252 12.97 169.332 12.92C169.422 12.88 169.503 12.83 169.563 12.76C169.493 11.64 169.493 10.51 169.563 9.38C169.233 9.04 168.642 9.22 168.642 9.38C168.592 10.05 168.492 10.27 168.392 10.32C168.122 10.59 166.562 10.53 165.642 10.53V6.84C165.642 6.54 165.793 6.16 166.153 6.17H168.073C168.993 6.1 169.573 6.64 170.043 8.14C170.043 8.31 170.573 8.28 170.903 8.14C171.003 8.14 171.022 8.07 171.002 7.99C170.802 6.64 170.643 5.71 170.603 5.34C170.603 5.24 170.603 5.13 170.343 5.13C169.913 5.2 169.593 5.13 164.823 5.13L164.843 5.12ZM47.5425 15.56V11.43C49.0925 11.43 50.1225 11.3 51.1925 12.26C51.4725 12.54 51.6925 12.86 51.8325 13.23C51.9825 13.6 52.0525 13.99 52.0525 14.38C52.1625 16.57 49.8625 16.7 48.9625 16.64H48.9125C47.6925 16.58 47.5425 16.04 47.5425 15.56ZM49.8325 6.28C50.1125 6.38 50.3625 6.54 50.5625 6.76C50.7725 6.98 50.9325 7.23 51.0325 7.52C51.1325 7.81 51.1725 8.11 51.1525 8.41C51.0825 9.7 50.3425 10.38 48.7225 10.38H47.5525V6.8C47.5525 6.4 47.5525 6.33 47.9125 6.23C48.2625 6.18 48.6225 6.16 48.9825 6.18C49.2725 6.15 49.5625 6.18 49.8425 6.29L49.8325 6.28ZM46.5925 5.11H44.2025C44.0725 5.25 44.0025 5.43 44.0025 5.63C44.0025 5.82 44.0725 6.01 44.2025 6.15C44.6225 6.14 45.0425 6.23 45.4225 6.42C45.5225 6.52 45.6225 6.78 45.6225 7.66V15.13C45.6225 16.06 45.4725 16.32 45.4225 16.38C45.0525 16.58 44.6225 16.67 44.2025 16.64C43.9325 16.93 43.9325 17.38 44.2025 17.67H49.2725C50.6125 17.75 51.9325 17.32 52.9725 16.48C53.2725 16.14 53.5125 15.75 53.6625 15.33C53.8225 14.9 53.8925 14.44 53.8725 13.98C53.8725 13.23 53.6425 12.5 53.2025 11.9C52.7725 11.31 52.1425 10.9 51.4425 10.72V10.65C51.8725 10.39 52.2225 10.04 52.4725 9.62C52.7325 9.19 52.8825 8.72 52.9225 8.22C52.9225 6.16 51.5525 5.12 48.8625 5.12H46.5825L46.5925 5.11ZM116.073 6.73C115.413 7.36 114.892 8.13 114.552 8.98C114.212 9.84 114.052 10.77 114.092 11.7C114.082 12.73 114.292 13.75 114.702 14.7C115.132 15.65 115.813 16.46 116.673 17.03C117.583 17.63 118.653 17.96 119.753 17.98H119.973C120.913 17.98 121.833 17.73 122.653 17.28C123.493 16.82 124.203 16.17 124.743 15.38V15.17C124.733 15.04 124.673 14.92 124.573 14.84C124.483 14.76 124.362 14.71 124.232 14.71L124.272 14.69H124.223V14.74C123.683 15.39 123.013 15.93 122.253 16.3C121.553 16.62 120.792 16.78 120.022 16.77C119.202 16.79 118.403 16.5 117.793 15.94C117.183 15.37 116.713 14.66 116.433 13.88C116.133 13.03 116.003 12.13 116.033 11.23C116.033 10.53 116.122 9.83 116.332 9.17C116.502 8.62 116.762 8.1 117.092 7.62C117.402 7.15 117.812 6.76 118.302 6.47C118.782 6.19 119.322 6.03 119.882 6.01C120.762 5.95 121.642 6.22 122.332 6.77C123.042 7.33 123.542 8.12 123.732 9.01V9.11H123.832C124.092 9.18 124.362 9.14 124.592 9.01H124.692V8.91C124.642 8.29 124.483 7.3 124.293 6.01V5.91H124.132C123.642 5.81 123.173 5.68 122.713 5.49C121.863 5.22 120.973 5.08 120.073 5.07H120.052C118.552 5.07 117.122 5.67 116.062 6.73H116.073ZM135.793 16.87C135.223 16.87 134.672 16.73 134.162 16.48C133.652 16.23 133.192 15.86 132.832 15.42C132.192 14.5 131.773 13.44 131.603 12.33C131.433 11.21 131.513 10.07 131.853 8.99C132.003 8.22 132.393 7.52 132.963 6.99C133.523 6.47 134.233 6.16 134.993 6.09C135.563 6.09 136.132 6.22 136.642 6.48C137.162 6.74 137.613 7.13 137.953 7.6C139.543 9.96 139.643 13.02 138.213 15.48H138.293C138.023 15.91 137.662 16.26 137.222 16.51C136.792 16.75 136.303 16.88 135.813 16.88L135.793 16.87ZM135.453 5H135.332C131.792 5 129.572 7.9 129.552 11.69C129.532 12.51 129.663 13.32 129.953 14.09C130.243 14.85 130.673 15.54 131.233 16.13C131.783 16.71 132.443 17.16 133.183 17.47C133.913 17.77 134.693 17.92 135.483 17.89C139.673 17.96 141.403 14.34 141.403 11.36C141.423 10.53 141.283 9.71 140.993 8.93C140.703 8.16 140.263 7.46 139.703 6.87C139.153 6.28 138.492 5.81 137.752 5.49C137.032 5.18 136.262 5.01 135.472 5.01H135.442L135.453 5ZM77.8925 16.5C77.3825 16.25 76.9225 15.88 76.5625 15.44C75.9225 14.52 75.5025 13.46 75.3325 12.35C75.1625 11.23 75.2425 10.09 75.5825 9.01C75.7325 8.24 76.1225 7.54 76.6925 7.01C77.2525 6.49 77.9725 6.18 78.7325 6.11C79.3025 6.11 79.8725 6.24 80.3825 6.5C80.9025 6.76 81.3525 7.15 81.6925 7.61C83.2825 9.97 83.3825 13.03 81.9425 15.49H82.0025C81.7325 15.92 81.3725 16.27 80.9325 16.52C80.5025 16.76 80.0225 16.89 79.5225 16.89C78.9525 16.89 78.4025 16.75 77.8925 16.5ZM79.1925 5.01H79.0425C75.5025 5.01 73.2825 7.91 73.2625 11.7C73.2325 12.52 73.3725 13.33 73.6625 14.1C73.9425 14.86 74.3825 15.55 74.9425 16.14C75.4925 16.72 76.1625 17.17 76.9025 17.48C77.6325 17.78 78.4125 17.93 79.2025 17.9C83.3925 17.97 85.1225 14.35 85.1225 11.37C85.1425 10.54 84.9925 9.71 84.7025 8.93C84.4125 8.16 83.9725 7.45 83.4025 6.85C82.8425 6.26 82.1725 5.79 81.4225 5.47C80.7225 5.17 79.9625 5.01 79.2025 5.01H79.1925Z" fill="url(#paint1_radial_1_157)"/>
<path d="M105.692 5.19C104.572 5.25 103.443 5.25 102.323 5.19C102.063 5.48 102.063 5.93 102.323 6.22C102.693 6.24 103.053 6.33 103.393 6.48C103.483 6.54 103.473 6.7 103.393 6.95L100.613 15.04L98.0725 7.1C97.9725 6.75 97.9825 6.54 98.1225 6.42C98.3925 6.28 98.6825 6.19 98.9825 6.16C99.1825 5.86 99.1825 5.47 98.9825 5.18C97.5625 5.26 96.1425 5.26 94.7225 5.18C94.5225 5.5 94.5225 5.9 94.7225 6.21C95.0425 6.18 95.3625 6.27 95.6325 6.46C95.9025 6.65 96.1025 6.93 96.2025 7.24C96.5525 8.44 96.6425 8.48 96.4625 9.31L94.2725 15.07L91.6325 6.81C91.4925 6.25 92.4325 6.29 92.4425 6.29C92.6725 5.98 92.6725 5.56 92.4425 5.26C91.1125 5.34 89.7725 5.34 88.4425 5.26C88.2425 5.58 88.2425 5.98 88.4425 6.29C89.1625 6.29 89.4325 6.29 89.7125 7.17C89.7925 7.44 92.8025 16.66 93.0625 17.39C93.1025 17.54 93.1925 17.68 93.3225 17.77C93.5725 17.97 93.9225 17.97 94.1725 17.77C94.2925 17.67 94.3825 17.54 94.4325 17.39C94.8725 16.36 97.0725 10.43 97.0725 10.43C97.0725 10.43 98.8725 15.99 99.3025 17.39C99.3425 17.55 99.4325 17.69 99.5625 17.79C99.8125 17.99 100.173 17.99 100.423 17.79C100.553 17.69 100.633 17.55 100.673 17.39L104.262 7.27C104.352 6.95 104.553 6.68 104.823 6.48C105.083 6.29 105.412 6.21 105.732 6.23C105.852 6.08 105.922 5.91 105.952 5.72C105.982 5.53 105.953 5.34 105.893 5.16H105.702L105.692 5.19ZM61.8025 7.09C61.8025 6.68 61.9525 6.06 63.1725 6.06C63.7125 5.99 64.2525 6.14 64.6725 6.47C65.1025 6.82 65.3925 7.32 65.4625 7.86C65.9725 9.13 65.3425 10.58 64.0725 11.08C63.6325 11.25 63.1625 11.3 62.7025 11.21H61.8025V7.08V7.09ZM58.2725 5.66C58.2725 5.85 58.3425 6.04 58.4725 6.18C58.6625 6.18 59.5925 6.25 59.6925 6.45C59.8725 6.84 59.9525 7.26 59.9025 7.69C59.9025 16.27 59.9725 15.77 59.6925 16.36C59.3025 16.55 58.8625 16.63 58.4325 16.62C58.2025 16.93 58.2325 17.36 58.4925 17.65H63.4125C63.6525 17.41 63.5725 16.95 63.4125 16.62C62.9725 16.64 62.5425 16.55 62.1525 16.36C61.8225 16.02 61.8925 15.09 61.8925 12.16C63.3225 12.08 63.6325 12.64 63.7225 12.78C63.8125 12.92 65.0625 14.98 65.6425 15.95C65.8925 16.44 66.2625 16.86 66.7025 17.18C67.1425 17.49 67.6425 17.7 68.1825 17.77C68.5025 17.79 68.8125 17.72 69.0925 17.56C69.1725 17.36 69.1725 17.14 69.0925 16.94H68.9125C67.9225 16.99 67.6825 16.16 65.1625 11.85C65.8125 11.58 66.3725 11.13 66.7625 10.54C67.1625 9.94 67.3825 9.24 67.3925 8.52C67.3925 8.06 67.3125 7.6 67.1425 7.17C66.9725 6.75 66.7225 6.36 66.4025 6.03C65.2325 4.83 62.7325 5.19 60.9225 5.19C59.5025 5.19 58.7725 5.14 58.4825 5.14C58.3525 5.28 58.2825 5.46 58.2825 5.66H58.2725ZM153.692 7.17C154.582 7.89 155.192 8.9 155.412 10.03C155.762 11.46 155.752 12.96 155.362 14.39H155.353C154.483 16.74 151.582 16.65 151.052 16.67C150.322 16.67 149.222 16.67 149.222 15.9V6.9C149.222 6.57 149.303 6.17 150.593 6.18C151.713 6.11 152.822 6.46 153.692 7.16V7.17ZM145.823 5.65C145.823 5.84 145.892 6.03 146.022 6.17C146.442 6.15 146.863 6.24 147.233 6.43C147.333 6.53 147.433 6.79 147.433 7.68V15.15C147.433 16.08 147.283 16.34 147.233 16.39C146.863 16.6 146.442 16.69 146.022 16.65C145.752 16.94 145.752 17.39 146.022 17.68H151.802C158.242 17.62 157.892 11.95 157.892 11.71C157.892 10.84 157.703 9.97 157.373 9.17C157.043 8.37 156.563 7.65 155.953 7.04C155.353 6.44 154.643 5.97 153.853 5.65C153.073 5.34 152.243 5.19 151.403 5.22V5.18C145.603 5.18 146.582 5.13 146.032 5.13C145.902 5.27 145.832 5.45 145.832 5.65H145.823ZM164.843 5.12H162.403C162.213 5.44 162.213 5.84 162.403 6.15C162.843 6.14 163.272 6.23 163.672 6.41C163.772 6.51 163.922 6.77 163.922 7.65V15.08C163.922 16.31 163.833 16.59 162.353 16.59C162.163 16.91 162.163 17.3 162.353 17.62H164.793C167.533 17.56 171.163 17.62 171.233 17.62C171.573 16.53 171.833 15.42 171.993 14.29C171.653 14.12 171.262 14.08 170.882 14.17C170.682 14.56 170.393 16.61 168.603 16.61H166.112C165.852 16.61 165.603 16.61 165.603 15.99V11.57C166.453 11.5 167.302 11.55 168.142 11.73C168.572 11.91 168.603 12.3 168.603 12.76C168.723 12.89 168.893 12.97 169.063 12.97C169.153 12.97 169.252 12.97 169.332 12.92C169.422 12.88 169.503 12.83 169.563 12.76C169.493 11.64 169.493 10.51 169.563 9.38C169.233 9.04 168.642 9.22 168.642 9.38C168.592 10.05 168.492 10.27 168.392 10.32C168.122 10.59 166.562 10.53 165.642 10.53V6.84C165.642 6.54 165.793 6.16 166.153 6.17H168.073C168.993 6.1 169.573 6.64 170.043 8.14C170.043 8.31 170.573 8.28 170.903 8.14C171.003 8.14 171.022 8.07 171.002 7.99C170.802 6.64 170.643 5.71 170.603 5.34C170.603 5.24 170.603 5.13 170.343 5.13C169.913 5.2 169.593 5.13 164.823 5.13L164.843 5.12ZM47.5425 15.56V11.43C49.0925 11.43 50.1225 11.3 51.1925 12.26C51.4725 12.54 51.6925 12.86 51.8325 13.23C51.9825 13.6 52.0525 13.99 52.0525 14.38C52.1625 16.57 49.8625 16.7 48.9625 16.64H48.9125C47.6925 16.58 47.5425 16.04 47.5425 15.56ZM49.8325 6.28C50.1125 6.38 50.3625 6.54 50.5625 6.76C50.7725 6.98 50.9325 7.23 51.0325 7.52C51.1325 7.81 51.1725 8.11 51.1525 8.41C51.0825 9.7 50.3425 10.38 48.7225 10.38H47.5525V6.8C47.5525 6.4 47.5525 6.33 47.9125 6.23C48.2625 6.18 48.6225 6.16 48.9825 6.18C49.2725 6.15 49.5625 6.18 49.8425 6.29L49.8325 6.28ZM46.5925 5.11H44.2025C44.0725 5.25 44.0025 5.43 44.0025 5.63C44.0025 5.82 44.0725 6.01 44.2025 6.15C44.6225 6.14 45.0425 6.23 45.4225 6.42C45.5225 6.52 45.6225 6.78 45.6225 7.66V15.13C45.6225 16.06 45.4725 16.32 45.4225 16.38C45.0525 16.58 44.6225 16.67 44.2025 16.64C43.9325 16.93 43.9325 17.38 44.2025 17.67H49.2725C50.6125 17.75 51.9325 17.32 52.9725 16.48C53.2725 16.14 53.5125 15.75 53.6625 15.33C53.8225 14.9 53.8925 14.44 53.8725 13.98C53.8725 13.23 53.6425 12.5 53.2025 11.9C52.7725 11.31 52.1425 10.9 51.4425 10.72V10.65C51.8725 10.39 52.2225 10.04 52.4725 9.62C52.7325 9.19 52.8825 8.72 52.9225 8.22C52.9225 6.16 51.5525 5.12 48.8625 5.12H46.5825L46.5925 5.11ZM116.073 6.73C115.413 7.36 114.892 8.13 114.552 8.98C114.212 9.84 114.052 10.77 114.092 11.7C114.082 12.73 114.292 13.75 114.702 14.7C115.132 15.65 115.813 16.46 116.673 17.03C117.583 17.63 118.653 17.96 119.753 17.98H119.973C120.913 17.98 121.833 17.73 122.653 17.28C123.493 16.82 124.203 16.17 124.743 15.38V15.17C124.733 15.04 124.673 14.92 124.573 14.84C124.483 14.76 124.362 14.71 124.232 14.71L124.272 14.69H124.223V14.74C123.683 15.39 123.013 15.93 122.253 16.3C121.553 16.62 120.792 16.78 120.022 16.77C119.202 16.79 118.403 16.5 117.793 15.94C117.183 15.37 116.713 14.66 116.433 13.88C116.133 13.03 116.003 12.13 116.033 11.23C116.033 10.53 116.122 9.83 116.332 9.17C116.502 8.62 116.762 8.1 117.092 7.62C117.402 7.15 117.812 6.76 118.302 6.47C118.782 6.19 119.322 6.03 119.882 6.01C120.762 5.95 121.642 6.22 122.332 6.77C123.042 7.33 123.542 8.12 123.732 9.01V9.11H123.832C124.092 9.18 124.362 9.14 124.592 9.01H124.692V8.91C124.642 8.29 124.483 7.3 124.293 6.01V5.91H124.132C123.642 5.81 123.173 5.68 122.713 5.49C121.863 5.22 120.973 5.08 120.073 5.07H120.052C118.552 5.07 117.122 5.67 116.062 6.73H116.073ZM135.793 16.87C135.223 16.87 134.672 16.73 134.162 16.48C133.652 16.23 133.192 15.86 132.832 15.42C132.192 14.5 131.773 13.44 131.603 12.33C131.433 11.21 131.513 10.07 131.853 8.99C132.003 8.22 132.393 7.52 132.963 6.99C133.523 6.47 134.233 6.16 134.993 6.09C135.563 6.09 136.132 6.22 136.642 6.48C137.162 6.74 137.613 7.13 137.953 7.6C139.543 9.96 139.643 13.02 138.213 15.48H138.293C138.023 15.91 137.662 16.26 137.222 16.51C136.792 16.75 136.303 16.88 135.813 16.88L135.793 16.87ZM135.453 5H135.332C131.792 5 129.572 7.9 129.552 11.69C129.532 12.51 129.663 13.32 129.953 14.09C130.243 14.85 130.673 15.54 131.233 16.13C131.783 16.71 132.443 17.16 133.183 17.47C133.913 17.77 134.693 17.92 135.483 17.89C139.673 17.96 141.403 14.34 141.403 11.36C141.423 10.53 141.283 9.71 140.993 8.93C140.703 8.16 140.263 7.46 139.703 6.87C139.153 6.28 138.492 5.81 137.752 5.49C137.032 5.18 136.262 5.01 135.472 5.01H135.442L135.453 5ZM77.8925 16.5C77.3825 16.25 76.9225 15.88 76.5625 15.44C75.9225 14.52 75.5025 13.46 75.3325 12.35C75.1625 11.23 75.2425 10.09 75.5825 9.01C75.7325 8.24 76.1225 7.54 76.6925 7.01C77.2525 6.49 77.9725 6.18 78.7325 6.11C79.3025 6.11 79.8725 6.24 80.3825 6.5C80.9025 6.76 81.3525 7.15 81.6925 7.61C83.2825 9.97 83.3825 13.03 81.9425 15.49H82.0025C81.7325 15.92 81.3725 16.27 80.9325 16.52C80.5025 16.76 80.0225 16.89 79.5225 16.89C78.9525 16.89 78.4025 16.75 77.8925 16.5ZM79.1925 5.01H79.0425C75.5025 5.01 73.2825 7.91 73.2625 11.7C73.2325 12.52 73.3725 13.33 73.6625 14.1C73.9425 14.86 74.3825 15.55 74.9425 16.14C75.4925 16.72 76.1625 17.17 76.9025 17.48C77.6325 17.78 78.4125 17.93 79.2025 17.9C83.3925 17.97 85.1225 14.35 85.1225 11.37C85.1425 10.54 84.9925 9.71 84.7025 8.93C84.4125 8.16 83.9725 7.45 83.4025 6.85C82.8425 6.26 82.1725 5.79 81.4225 5.47C80.7225 5.17 79.9625 5.01 79.2025 5.01H79.1925Z" fill="url(#paint2_radial_1_157)"/>
</g>
<defs>
<radialGradient id="paint0_radial_1_157" cx="0" cy="0" r="1" gradientUnits="userSpaceOnUse" gradientTransform="translate(38.5 14) rotate(162.474) scale(69.737 37.7726)">
<stop offset="0.122984" stop-color="#C3A355"/>
<stop offset="1" stop-color="#FBF7B0"/>
</radialGradient>
<radialGradient id="paint1_radial_1_157" cx="0" cy="0" r="1" gradientUnits="userSpaceOnUse" gradientTransform="translate(103 26) rotate(-110.292) scale(63.437 110.295)">
<stop stop-color="#C3A355"/>
<stop offset="1" stop-color="#FBF7B0"/>
<stop offset="1" stop-color="#FBF7B0"/>
</radialGradient>
<radialGradient id="paint2_radial_1_157" cx="0" cy="0" r="1" gradientUnits="userSpaceOnUse" gradientTransform="translate(101.5 -3) rotate(34.1145) scale(37.4433 18.1648)">
<stop stop-color="#FBF7B0"/>
<stop stop-color="#FBF7B0" stop-opacity="0.722018"/>
<stop offset="1" stop-color="#FBF7B0" stop-opacity="0"/>
</radialGradient>
<clipPath id="clip0_1_157">
<rect width="172" height="34.67" fill="white"/>
</clipPath>
</defs>
</svg>
