<svg width="172" height="35" viewBox="0 0 172 35" fill="none" xmlns="http://www.w3.org/2000/svg">
<g clip-path="url(#clip0_1_163)">
<path d="M3.49 3.41V14.8H6.05V5.99H27.16V28.61H6.05V19.39H3.49V31.15H29.72V3.41H3.49ZM2.34 2.11H31V32.27H2.34L2.28 18.11H14.44C15.38 18.11 15.83 18.25 16 18.54C16.17 18.83 16.28 18.8 16.28 20.37V22.98C16.28 24.87 15.87 25.3 14.89 25.3H9.7V19.46H7.2V27.49H21.98C26.13 27.49 25.9 25.91 25.9 23.33V19.45H23.39V22.99C23.39 24.2 23.28 25.32 22.12 25.32H18.45C18.71 24.69 18.81 24.01 18.77 23.34V20.26C18.77 18.33 17.95 17.29 17.39 17.09C17.89 16.68 18.22 16.1 18.32 15.47C18.54 13.41 18.52 11.33 18.25 9.27H21.86C23.37 9.27 23.42 10.24 23.42 10.78V14.94H25.98V10.09C25.98 8.48 25.29 7.12 23.3 7.12H7.32V14.73H9.74V9.18H14.65C15.4 9.18 15.86 9.32 15.86 10.57V14.66C15.86 15.3 15.65 15.85 14.47 15.85H2.34V2.11V2.11ZM0 34.67H33.22V0H0V34.67Z" fill="url(#paint0_radial_1_163)"/>
<path d="M105.692 5.19C104.572 5.25 103.443 5.25 102.323 5.19C102.063 5.48 102.063 5.93 102.323 6.22C102.693 6.24 103.053 6.33 103.393 6.48C103.483 6.54 103.473 6.7 103.393 6.95L100.613 15.04L98.0725 7.1C97.9725 6.75 97.9825 6.54 98.1225 6.42C98.3925 6.28 98.6825 6.19 98.9825 6.16C99.1825 5.86 99.1825 5.47 98.9825 5.18C97.5625 5.26 96.1425 5.26 94.7225 5.18C94.5225 5.5 94.5225 5.9 94.7225 6.21C95.0425 6.18 95.3625 6.27 95.6325 6.46C95.9025 6.65 96.1025 6.93 96.2025 7.24C96.5525 8.44 96.6425 8.48 96.4625 9.31L94.2725 15.07L91.6325 6.81C91.4925 6.25 92.4325 6.29 92.4425 6.29C92.6725 5.98 92.6725 5.56 92.4425 5.26C91.1125 5.34 89.7725 5.34 88.4425 5.26C88.2425 5.58 88.2425 5.98 88.4425 6.29C89.1625 6.29 89.4325 6.29 89.7125 7.17C89.7925 7.44 92.8025 16.66 93.0625 17.39C93.1025 17.54 93.1925 17.68 93.3225 17.77C93.5725 17.97 93.9225 17.97 94.1725 17.77C94.2925 17.67 94.3825 17.54 94.4325 17.39C94.8725 16.36 97.0725 10.43 97.0725 10.43C97.0725 10.43 98.8725 15.99 99.3025 17.39C99.3425 17.55 99.4325 17.69 99.5625 17.79C99.8125 17.99 100.173 17.99 100.423 17.79C100.553 17.69 100.633 17.55 100.673 17.39L104.262 7.27C104.352 6.95 104.553 6.68 104.823 6.48C105.083 6.29 105.412 6.21 105.732 6.23C105.852 6.08 105.922 5.91 105.952 5.72C105.982 5.53 105.953 5.34 105.893 5.16H105.702L105.692 5.19ZM61.8025 7.09C61.8025 6.68 61.9525 6.06 63.1725 6.06C63.7125 5.99 64.2525 6.14 64.6725 6.47C65.1025 6.82 65.3925 7.32 65.4625 7.86C65.9725 9.13 65.3425 10.58 64.0725 11.08C63.6325 11.25 63.1625 11.3 62.7025 11.21H61.8025V7.08V7.09ZM58.2725 5.66C58.2725 5.85 58.3425 6.04 58.4725 6.18C58.6625 6.18 59.5925 6.25 59.6925 6.45C59.8725 6.84 59.9525 7.26 59.9025 7.69C59.9025 16.27 59.9725 15.77 59.6925 16.36C59.3025 16.55 58.8625 16.63 58.4325 16.62C58.2025 16.93 58.2325 17.36 58.4925 17.65H63.4125C63.6525 17.41 63.5725 16.95 63.4125 16.62C62.9725 16.64 62.5425 16.55 62.1525 16.36C61.8225 16.02 61.8925 15.09 61.8925 12.16C63.3225 12.08 63.6325 12.64 63.7225 12.78C63.8125 12.92 65.0625 14.98 65.6425 15.95C65.8925 16.44 66.2625 16.86 66.7025 17.18C67.1425 17.49 67.6425 17.7 68.1825 17.77C68.5025 17.79 68.8125 17.72 69.0925 17.56C69.1725 17.36 69.1725 17.14 69.0925 16.94H68.9125C67.9225 16.99 67.6825 16.16 65.1625 11.85C65.8125 11.58 66.3725 11.13 66.7625 10.54C67.1625 9.94 67.3825 9.24 67.3925 8.52C67.3925 8.06 67.3125 7.6 67.1425 7.17C66.9725 6.75 66.7225 6.36 66.4025 6.03C65.2325 4.83 62.7325 5.19 60.9225 5.19C59.5025 5.19 58.7725 5.14 58.4825 5.14C58.3525 5.28 58.2825 5.46 58.2825 5.66H58.2725ZM153.692 7.17C154.582 7.89 155.192 8.9 155.412 10.03C155.762 11.46 155.752 12.96 155.362 14.39H155.353C154.483 16.74 151.582 16.65 151.052 16.67C150.322 16.67 149.222 16.67 149.222 15.9V6.9C149.222 6.57 149.303 6.17 150.593 6.18C151.713 6.11 152.822 6.46 153.692 7.16V7.17ZM145.823 5.65C145.823 5.84 145.892 6.03 146.022 6.17C146.442 6.15 146.863 6.24 147.233 6.43C147.333 6.53 147.433 6.79 147.433 7.68V15.15C147.433 16.08 147.283 16.34 147.233 16.39C146.863 16.6 146.442 16.69 146.022 16.65C145.752 16.94 145.752 17.39 146.022 17.68H151.802C158.242 17.62 157.892 11.95 157.892 11.71C157.892 10.84 157.703 9.97 157.373 9.17C157.043 8.37 156.563 7.65 155.953 7.04C155.353 6.44 154.643 5.97 153.853 5.65C153.073 5.34 152.243 5.19 151.403 5.22V5.18C145.603 5.18 146.582 5.13 146.032 5.13C145.902 5.27 145.832 5.45 145.832 5.65H145.823ZM164.843 5.12H162.403C162.213 5.44 162.213 5.84 162.403 6.15C162.843 6.14 163.272 6.23 163.672 6.41C163.772 6.51 163.922 6.77 163.922 7.65V15.08C163.922 16.31 163.833 16.59 162.353 16.59C162.163 16.91 162.163 17.3 162.353 17.62H164.793C167.533 17.56 171.163 17.62 171.233 17.62C171.573 16.53 171.833 15.42 171.993 14.29C171.653 14.12 171.262 14.08 170.882 14.17C170.682 14.56 170.393 16.61 168.603 16.61H166.112C165.852 16.61 165.603 16.61 165.603 15.99V11.57C166.453 11.5 167.302 11.55 168.142 11.73C168.572 11.91 168.603 12.3 168.603 12.76C168.723 12.89 168.893 12.97 169.063 12.97C169.153 12.97 169.252 12.97 169.332 12.92C169.422 12.88 169.503 12.83 169.563 12.76C169.493 11.64 169.493 10.51 169.563 9.38C169.233 9.04 168.642 9.22 168.642 9.38C168.592 10.05 168.492 10.27 168.392 10.32C168.122 10.59 166.562 10.53 165.642 10.53V6.84C165.642 6.54 165.793 6.16 166.153 6.17H168.073C168.993 6.1 169.573 6.64 170.043 8.14C170.043 8.31 170.573 8.28 170.903 8.14C171.003 8.14 171.022 8.07 171.002 7.99C170.802 6.64 170.643 5.71 170.603 5.34C170.603 5.24 170.603 5.13 170.343 5.13C169.913 5.2 169.593 5.13 164.823 5.13L164.843 5.12ZM47.5425 15.56V11.43C49.0925 11.43 50.1225 11.3 51.1925 12.26C51.4725 12.54 51.6925 12.86 51.8325 13.23C51.9825 13.6 52.0525 13.99 52.0525 14.38C52.1625 16.57 49.8625 16.7 48.9625 16.64H48.9125C47.6925 16.58 47.5425 16.04 47.5425 15.56ZM49.8325 6.28C50.1125 6.38 50.3625 6.54 50.5625 6.76C50.7725 6.98 50.9325 7.23 51.0325 7.52C51.1325 7.81 51.1725 8.11 51.1525 8.41C51.0825 9.7 50.3425 10.38 48.7225 10.38H47.5525V6.8C47.5525 6.4 47.5525 6.33 47.9125 6.23C48.2625 6.18 48.6225 6.16 48.9825 6.18C49.2725 6.15 49.5625 6.18 49.8425 6.29L49.8325 6.28ZM46.5925 5.11H44.2025C44.0725 5.25 44.0025 5.43 44.0025 5.63C44.0025 5.82 44.0725 6.01 44.2025 6.15C44.6225 6.14 45.0425 6.23 45.4225 6.42C45.5225 6.52 45.6225 6.78 45.6225 7.66V15.13C45.6225 16.06 45.4725 16.32 45.4225 16.38C45.0525 16.58 44.6225 16.67 44.2025 16.64C43.9325 16.93 43.9325 17.38 44.2025 17.67H49.2725C50.6125 17.75 51.9325 17.32 52.9725 16.48C53.2725 16.14 53.5125 15.75 53.6625 15.33C53.8225 14.9 53.8925 14.44 53.8725 13.98C53.8725 13.23 53.6425 12.5 53.2025 11.9C52.7725 11.31 52.1425 10.9 51.4425 10.72V10.65C51.8725 10.39 52.2225 10.04 52.4725 9.62C52.7325 9.19 52.8825 8.72 52.9225 8.22C52.9225 6.16 51.5525 5.12 48.8625 5.12H46.5825L46.5925 5.11ZM116.073 6.73C115.413 7.36 114.892 8.13 114.552 8.98C114.212 9.84 114.052 10.77 114.092 11.7C114.082 12.73 114.292 13.75 114.702 14.7C115.132 15.65 115.813 16.46 116.673 17.03C117.583 17.63 118.653 17.96 119.753 17.98H119.973C120.913 17.98 121.833 17.73 122.653 17.28C123.493 16.82 124.203 16.17 124.743 15.38V15.17C124.733 15.04 124.673 14.92 124.573 14.84C124.483 14.76 124.362 14.71 124.232 14.71L124.272 14.69H124.223V14.74C123.683 15.39 123.013 15.93 122.253 16.3C121.553 16.62 120.792 16.78 120.022 16.77C119.202 16.79 118.403 16.5 117.793 15.94C117.183 15.37 116.713 14.66 116.433 13.88C116.133 13.03 116.003 12.13 116.033 11.23C116.033 10.53 116.122 9.83 116.332 9.17C116.502 8.62 116.762 8.1 117.092 7.62C117.402 7.15 117.812 6.76 118.302 6.47C118.782 6.19 119.322 6.03 119.882 6.01C120.762 5.95 121.642 6.22 122.332 6.77C123.042 7.33 123.542 8.12 123.732 9.01V9.11H123.832C124.092 9.18 124.362 9.14 124.592 9.01H124.692V8.91C124.642 8.29 124.483 7.3 124.293 6.01V5.91H124.132C123.642 5.81 123.173 5.68 122.713 5.49C121.863 5.22 120.973 5.08 120.073 5.07H120.052C118.552 5.07 117.122 5.67 116.062 6.73H116.073ZM135.793 16.87C135.223 16.87 134.672 16.73 134.162 16.48C133.652 16.23 133.192 15.86 132.832 15.42C132.192 14.5 131.773 13.44 131.603 12.33C131.433 11.21 131.513 10.07 131.853 8.99C132.003 8.22 132.393 7.52 132.963 6.99C133.523 6.47 134.233 6.16 134.993 6.09C135.563 6.09 136.132 6.22 136.642 6.48C137.162 6.74 137.613 7.13 137.953 7.6C139.543 9.96 139.643 13.02 138.213 15.48H138.293C138.023 15.91 137.662 16.26 137.222 16.51C136.792 16.75 136.303 16.88 135.813 16.88L135.793 16.87ZM135.453 5H135.332C131.792 5 129.572 7.9 129.552 11.69C129.532 12.51 129.663 13.32 129.953 14.09C130.243 14.85 130.673 15.54 131.233 16.13C131.783 16.71 132.443 17.16 133.183 17.47C133.913 17.77 134.693 17.92 135.483 17.89C139.673 17.96 141.403 14.34 141.403 11.36C141.423 10.53 141.283 9.71 140.993 8.93C140.703 8.16 140.263 7.46 139.703 6.87C139.153 6.28 138.492 5.81 137.752 5.49C137.032 5.18 136.262 5.01 135.472 5.01H135.442L135.453 5ZM77.8925 16.5C77.3825 16.25 76.9225 15.88 76.5625 15.44C75.9225 14.52 75.5025 13.46 75.3325 12.35C75.1625 11.23 75.2425 10.09 75.5825 9.01C75.7325 8.24 76.1225 7.54 76.6925 7.01C77.2525 6.49 77.9725 6.18 78.7325 6.11C79.3025 6.11 79.8725 6.24 80.3825 6.5C80.9025 6.76 81.3525 7.15 81.6925 7.61C83.2825 9.97 83.3825 13.03 81.9425 15.49H82.0025C81.7325 15.92 81.3725 16.27 80.9325 16.52C80.5025 16.76 80.0225 16.89 79.5225 16.89C78.9525 16.89 78.4025 16.75 77.8925 16.5ZM79.1925 5.01H79.0425C75.5025 5.01 73.2825 7.91 73.2625 11.7C73.2325 12.52 73.3725 13.33 73.6625 14.1C73.9425 14.86 74.3825 15.55 74.9425 16.14C75.4925 16.72 76.1625 17.17 76.9025 17.48C77.6325 17.78 78.4125 17.93 79.2025 17.9C83.3925 17.97 85.1225 14.35 85.1225 11.37C85.1425 10.54 84.9925 9.71 84.7025 8.93C84.4125 8.16 83.9725 7.45 83.4025 6.85C82.8425 6.26 82.1725 5.79 81.4225 5.47C80.7225 5.17 79.9625 5.01 79.2025 5.01H79.1925Z" fill="url(#paint1_radial_1_163)"/>
<path d="M105.692 5.19C104.572 5.25 103.443 5.25 102.323 5.19C102.063 5.48 102.063 5.93 102.323 6.22C102.693 6.24 103.053 6.33 103.393 6.48C103.483 6.54 103.473 6.7 103.393 6.95L100.613 15.04L98.0725 7.1C97.9725 6.75 97.9825 6.54 98.1225 6.42C98.3925 6.28 98.6825 6.19 98.9825 6.16C99.1825 5.86 99.1825 5.47 98.9825 5.18C97.5625 5.26 96.1425 5.26 94.7225 5.18C94.5225 5.5 94.5225 5.9 94.7225 6.21C95.0425 6.18 95.3625 6.27 95.6325 6.46C95.9025 6.65 96.1025 6.93 96.2025 7.24C96.5525 8.44 96.6425 8.48 96.4625 9.31L94.2725 15.07L91.6325 6.81C91.4925 6.25 92.4325 6.29 92.4425 6.29C92.6725 5.98 92.6725 5.56 92.4425 5.26C91.1125 5.34 89.7725 5.34 88.4425 5.26C88.2425 5.58 88.2425 5.98 88.4425 6.29C89.1625 6.29 89.4325 6.29 89.7125 7.17C89.7925 7.44 92.8025 16.66 93.0625 17.39C93.1025 17.54 93.1925 17.68 93.3225 17.77C93.5725 17.97 93.9225 17.97 94.1725 17.77C94.2925 17.67 94.3825 17.54 94.4325 17.39C94.8725 16.36 97.0725 10.43 97.0725 10.43C97.0725 10.43 98.8725 15.99 99.3025 17.39C99.3425 17.55 99.4325 17.69 99.5625 17.79C99.8125 17.99 100.173 17.99 100.423 17.79C100.553 17.69 100.633 17.55 100.673 17.39L104.262 7.27C104.352 6.95 104.553 6.68 104.823 6.48C105.083 6.29 105.412 6.21 105.732 6.23C105.852 6.08 105.922 5.91 105.952 5.72C105.982 5.53 105.953 5.34 105.893 5.16H105.702L105.692 5.19ZM61.8025 7.09C61.8025 6.68 61.9525 6.06 63.1725 6.06C63.7125 5.99 64.2525 6.14 64.6725 6.47C65.1025 6.82 65.3925 7.32 65.4625 7.86C65.9725 9.13 65.3425 10.58 64.0725 11.08C63.6325 11.25 63.1625 11.3 62.7025 11.21H61.8025V7.08V7.09ZM58.2725 5.66C58.2725 5.85 58.3425 6.04 58.4725 6.18C58.6625 6.18 59.5925 6.25 59.6925 6.45C59.8725 6.84 59.9525 7.26 59.9025 7.69C59.9025 16.27 59.9725 15.77 59.6925 16.36C59.3025 16.55 58.8625 16.63 58.4325 16.62C58.2025 16.93 58.2325 17.36 58.4925 17.65H63.4125C63.6525 17.41 63.5725 16.95 63.4125 16.62C62.9725 16.64 62.5425 16.55 62.1525 16.36C61.8225 16.02 61.8925 15.09 61.8925 12.16C63.3225 12.08 63.6325 12.64 63.7225 12.78C63.8125 12.92 65.0625 14.98 65.6425 15.95C65.8925 16.44 66.2625 16.86 66.7025 17.18C67.1425 17.49 67.6425 17.7 68.1825 17.77C68.5025 17.79 68.8125 17.72 69.0925 17.56C69.1725 17.36 69.1725 17.14 69.0925 16.94H68.9125C67.9225 16.99 67.6825 16.16 65.1625 11.85C65.8125 11.58 66.3725 11.13 66.7625 10.54C67.1625 9.94 67.3825 9.24 67.3925 8.52C67.3925 8.06 67.3125 7.6 67.1425 7.17C66.9725 6.75 66.7225 6.36 66.4025 6.03C65.2325 4.83 62.7325 5.19 60.9225 5.19C59.5025 5.19 58.7725 5.14 58.4825 5.14C58.3525 5.28 58.2825 5.46 58.2825 5.66H58.2725ZM153.692 7.17C154.582 7.89 155.192 8.9 155.412 10.03C155.762 11.46 155.752 12.96 155.362 14.39H155.353C154.483 16.74 151.582 16.65 151.052 16.67C150.322 16.67 149.222 16.67 149.222 15.9V6.9C149.222 6.57 149.303 6.17 150.593 6.18C151.713 6.11 152.822 6.46 153.692 7.16V7.17ZM145.823 5.65C145.823 5.84 145.892 6.03 146.022 6.17C146.442 6.15 146.863 6.24 147.233 6.43C147.333 6.53 147.433 6.79 147.433 7.68V15.15C147.433 16.08 147.283 16.34 147.233 16.39C146.863 16.6 146.442 16.69 146.022 16.65C145.752 16.94 145.752 17.39 146.022 17.68H151.802C158.242 17.62 157.892 11.95 157.892 11.71C157.892 10.84 157.703 9.97 157.373 9.17C157.043 8.37 156.563 7.65 155.953 7.04C155.353 6.44 154.643 5.97 153.853 5.65C153.073 5.34 152.243 5.19 151.403 5.22V5.18C145.603 5.18 146.582 5.13 146.032 5.13C145.902 5.27 145.832 5.45 145.832 5.65H145.823ZM164.843 5.12H162.403C162.213 5.44 162.213 5.84 162.403 6.15C162.843 6.14 163.272 6.23 163.672 6.41C163.772 6.51 163.922 6.77 163.922 7.65V15.08C163.922 16.31 163.833 16.59 162.353 16.59C162.163 16.91 162.163 17.3 162.353 17.62H164.793C167.533 17.56 171.163 17.62 171.233 17.62C171.573 16.53 171.833 15.42 171.993 14.29C171.653 14.12 171.262 14.08 170.882 14.17C170.682 14.56 170.393 16.61 168.603 16.61H166.112C165.852 16.61 165.603 16.61 165.603 15.99V11.57C166.453 11.5 167.302 11.55 168.142 11.73C168.572 11.91 168.603 12.3 168.603 12.76C168.723 12.89 168.893 12.97 169.063 12.97C169.153 12.97 169.252 12.97 169.332 12.92C169.422 12.88 169.503 12.83 169.563 12.76C169.493 11.64 169.493 10.51 169.563 9.38C169.233 9.04 168.642 9.22 168.642 9.38C168.592 10.05 168.492 10.27 168.392 10.32C168.122 10.59 166.562 10.53 165.642 10.53V6.84C165.642 6.54 165.793 6.16 166.153 6.17H168.073C168.993 6.1 169.573 6.64 170.043 8.14C170.043 8.31 170.573 8.28 170.903 8.14C171.003 8.14 171.022 8.07 171.002 7.99C170.802 6.64 170.643 5.71 170.603 5.34C170.603 5.24 170.603 5.13 170.343 5.13C169.913 5.2 169.593 5.13 164.823 5.13L164.843 5.12ZM47.5425 15.56V11.43C49.0925 11.43 50.1225 11.3 51.1925 12.26C51.4725 12.54 51.6925 12.86 51.8325 13.23C51.9825 13.6 52.0525 13.99 52.0525 14.38C52.1625 16.57 49.8625 16.7 48.9625 16.64H48.9125C47.6925 16.58 47.5425 16.04 47.5425 15.56ZM49.8325 6.28C50.1125 6.38 50.3625 6.54 50.5625 6.76C50.7725 6.98 50.9325 7.23 51.0325 7.52C51.1325 7.81 51.1725 8.11 51.1525 8.41C51.0825 9.7 50.3425 10.38 48.7225 10.38H47.5525V6.8C47.5525 6.4 47.5525 6.33 47.9125 6.23C48.2625 6.18 48.6225 6.16 48.9825 6.18C49.2725 6.15 49.5625 6.18 49.8425 6.29L49.8325 6.28ZM46.5925 5.11H44.2025C44.0725 5.25 44.0025 5.43 44.0025 5.63C44.0025 5.82 44.0725 6.01 44.2025 6.15C44.6225 6.14 45.0425 6.23 45.4225 6.42C45.5225 6.52 45.6225 6.78 45.6225 7.66V15.13C45.6225 16.06 45.4725 16.32 45.4225 16.38C45.0525 16.58 44.6225 16.67 44.2025 16.64C43.9325 16.93 43.9325 17.38 44.2025 17.67H49.2725C50.6125 17.75 51.9325 17.32 52.9725 16.48C53.2725 16.14 53.5125 15.75 53.6625 15.33C53.8225 14.9 53.8925 14.44 53.8725 13.98C53.8725 13.23 53.6425 12.5 53.2025 11.9C52.7725 11.31 52.1425 10.9 51.4425 10.72V10.65C51.8725 10.39 52.2225 10.04 52.4725 9.62C52.7325 9.19 52.8825 8.72 52.9225 8.22C52.9225 6.16 51.5525 5.12 48.8625 5.12H46.5825L46.5925 5.11ZM116.073 6.73C115.413 7.36 114.892 8.13 114.552 8.98C114.212 9.84 114.052 10.77 114.092 11.7C114.082 12.73 114.292 13.75 114.702 14.7C115.132 15.65 115.813 16.46 116.673 17.03C117.583 17.63 118.653 17.96 119.753 17.98H119.973C120.913 17.98 121.833 17.73 122.653 17.28C123.493 16.82 124.203 16.17 124.743 15.38V15.17C124.733 15.04 124.673 14.92 124.573 14.84C124.483 14.76 124.362 14.71 124.232 14.71L124.272 14.69H124.223V14.74C123.683 15.39 123.013 15.93 122.253 16.3C121.553 16.62 120.792 16.78 120.022 16.77C119.202 16.79 118.403 16.5 117.793 15.94C117.183 15.37 116.713 14.66 116.433 13.88C116.133 13.03 116.003 12.13 116.033 11.23C116.033 10.53 116.122 9.83 116.332 9.17C116.502 8.62 116.762 8.1 117.092 7.62C117.402 7.15 117.812 6.76 118.302 6.47C118.782 6.19 119.322 6.03 119.882 6.01C120.762 5.95 121.642 6.22 122.332 6.77C123.042 7.33 123.542 8.12 123.732 9.01V9.11H123.832C124.092 9.18 124.362 9.14 124.592 9.01H124.692V8.91C124.642 8.29 124.483 7.3 124.293 6.01V5.91H124.132C123.642 5.81 123.173 5.68 122.713 5.49C121.863 5.22 120.973 5.08 120.073 5.07H120.052C118.552 5.07 117.122 5.67 116.062 6.73H116.073ZM135.793 16.87C135.223 16.87 134.672 16.73 134.162 16.48C133.652 16.23 133.192 15.86 132.832 15.42C132.192 14.5 131.773 13.44 131.603 12.33C131.433 11.21 131.513 10.07 131.853 8.99C132.003 8.22 132.393 7.52 132.963 6.99C133.523 6.47 134.233 6.16 134.993 6.09C135.563 6.09 136.132 6.22 136.642 6.48C137.162 6.74 137.613 7.13 137.953 7.6C139.543 9.96 139.643 13.02 138.213 15.48H138.293C138.023 15.91 137.662 16.26 137.222 16.51C136.792 16.75 136.303 16.88 135.813 16.88L135.793 16.87ZM135.453 5H135.332C131.792 5 129.572 7.9 129.552 11.69C129.532 12.51 129.663 13.32 129.953 14.09C130.243 14.85 130.673 15.54 131.233 16.13C131.783 16.71 132.443 17.16 133.183 17.47C133.913 17.77 134.693 17.92 135.483 17.89C139.673 17.96 141.403 14.34 141.403 11.36C141.423 10.53 141.283 9.71 140.993 8.93C140.703 8.16 140.263 7.46 139.703 6.87C139.153 6.28 138.492 5.81 137.752 5.49C137.032 5.18 136.262 5.01 135.472 5.01H135.442L135.453 5ZM77.8925 16.5C77.3825 16.25 76.9225 15.88 76.5625 15.44C75.9225 14.52 75.5025 13.46 75.3325 12.35C75.1625 11.23 75.2425 10.09 75.5825 9.01C75.7325 8.24 76.1225 7.54 76.6925 7.01C77.2525 6.49 77.9725 6.18 78.7325 6.11C79.3025 6.11 79.8725 6.24 80.3825 6.5C80.9025 6.76 81.3525 7.15 81.6925 7.61C83.2825 9.97 83.3825 13.03 81.9425 15.49H82.0025C81.7325 15.92 81.3725 16.27 80.9325 16.52C80.5025 16.76 80.0225 16.89 79.5225 16.89C78.9525 16.89 78.4025 16.75 77.8925 16.5ZM79.1925 5.01H79.0425C75.5025 5.01 73.2825 7.91 73.2625 11.7C73.2325 12.52 73.3725 13.33 73.6625 14.1C73.9425 14.86 74.3825 15.55 74.9425 16.14C75.4925 16.72 76.1625 17.17 76.9025 17.48C77.6325 17.78 78.4125 17.93 79.2025 17.9C83.3925 17.97 85.1225 14.35 85.1225 11.37C85.1425 10.54 84.9925 9.71 84.7025 8.93C84.4125 8.16 83.9725 7.45 83.4025 6.85C82.8425 6.26 82.1725 5.79 81.4225 5.47C80.7225 5.17 79.9625 5.01 79.2025 5.01H79.1925Z" fill="url(#paint2_radial_1_163)"/>
<path d="M86.8303 23.9333V26.1889H89.2081V26.9667H86.8303V29.8833H86V23.1167H89.8308V23.9333H86.8303Z" fill="#C5C5C5"/>
<path d="M95.4411 30C94.8057 30 94.2616 29.8542 93.8087 29.5625C93.3621 29.2708 93.0193 28.8625 92.7803 28.3375C92.5475 27.8125 92.4311 27.2 92.4311 26.5C92.4311 25.8 92.5475 25.1875 92.7803 24.6625C93.0193 24.1375 93.3621 23.7292 93.8087 23.4375C94.2616 23.1458 94.8057 23 95.4411 23C96.0764 23 96.6173 23.1458 97.064 23.4375C97.5169 23.7292 97.8597 24.1375 98.0924 24.6625C98.3315 25.1875 98.451 25.8 98.451 26.5C98.451 27.2 98.3315 27.8125 98.0924 28.3375C97.8597 28.8625 97.5169 29.2708 97.064 29.5625C96.6173 29.8542 96.0764 30 95.4411 30ZM95.4411 29.2222C96.1456 29.2222 96.674 28.9792 97.0262 28.4931C97.3785 28.0005 97.5546 27.3361 97.5546 26.5C97.5546 25.6639 97.3785 25.0028 97.0262 24.5167C96.674 24.0241 96.1456 23.7778 95.4411 23.7778C94.7365 23.7778 94.2082 24.0241 93.8559 24.5167C93.5036 25.0028 93.3275 25.6639 93.3275 26.5C93.3275 27.3361 93.5036 28.0005 93.8559 28.4931C94.2082 28.9792 94.7365 29.2222 95.4411 29.2222Z" fill="#C5C5C5"/>
<path d="M105.347 29.8833L104.016 27.2292H103.922H102.412V29.8833H101.582V23.1167H103.809C104.595 23.1167 105.18 23.2884 105.564 23.6319C105.947 23.969 106.139 24.4648 106.139 25.1194C106.139 25.6056 106.035 26.0171 105.828 26.3542C105.62 26.6912 105.315 26.931 104.913 27.0736L106.347 29.8833H105.347ZM103.818 26.4222C104.309 26.4222 104.667 26.325 104.894 26.1306C105.127 25.9296 105.243 25.5926 105.243 25.1194C105.243 24.6852 105.127 24.3806 104.894 24.2056C104.667 24.0241 104.306 23.9333 103.809 23.9333H102.412V26.4222H103.818Z" fill="#C5C5C5"/>
<path d="M121.721 29.8833H120.891V23.8556L118.749 29.8833H117.843L115.663 23.8944V29.8833H114.833V23.1167H116.286L118.315 28.6875L120.296 23.1167H121.721V29.8833Z" fill="#C5C5C5"/>
<path d="M125.915 23.9333V26.0722H128.792V26.85H125.915V29.0667H129V29.8833H125.084V23.1167H129V23.9333H125.915Z" fill="#C5C5C5"/>
</g>
<defs>
<radialGradient id="paint0_radial_1_163" cx="0" cy="0" r="1" gradientUnits="userSpaceOnUse" gradientTransform="translate(38.5 14) rotate(162.474) scale(69.737 37.7726)">
<stop offset="0.122984" stop-color="#C3A355"/>
<stop offset="1" stop-color="#FBF7B0"/>
</radialGradient>
<radialGradient id="paint1_radial_1_163" cx="0" cy="0" r="1" gradientUnits="userSpaceOnUse" gradientTransform="translate(103 26) rotate(-110.292) scale(63.437 110.295)">
<stop stop-color="#C3A355"/>
<stop offset="1" stop-color="#FBF7B0"/>
<stop offset="1" stop-color="#FBF7B0"/>
</radialGradient>
<radialGradient id="paint2_radial_1_163" cx="0" cy="0" r="1" gradientUnits="userSpaceOnUse" gradientTransform="translate(101.5 -3) rotate(34.1145) scale(37.4433 18.1648)">
<stop stop-color="#FBF7B0"/>
<stop stop-color="#FBF7B0" stop-opacity="0.722018"/>
<stop offset="1" stop-color="#FBF7B0" stop-opacity="0"/>
</radialGradient>
<clipPath id="clip0_1_163">
<rect width="172" height="34.67" fill="white"/>
</clipPath>
</defs>
</svg>
