<svg width="172" height="35" viewBox="0 0 172 35" fill="none" xmlns="http://www.w3.org/2000/svg">
<path d="M3.49 3.41V14.8H6.05V5.99H27.16V28.61H6.05V19.39H3.49V31.15H29.72V3.41H3.49ZM2.34 2.11H31V32.27H2.34L2.28 18.11H14.44C15.38 18.11 15.83 18.25 16 18.54C16.17 18.83 16.28 18.8 16.28 20.37V22.98C16.28 24.87 15.87 25.3 14.89 25.3H9.7V19.46H7.2V27.49H21.98C26.13 27.49 25.9 25.91 25.9 23.33V19.45H23.39V22.99C23.39 24.2 23.28 25.32 22.12 25.32H18.45C18.71 24.69 18.81 24.01 18.77 23.34V20.26C18.77 18.33 17.95 17.29 17.39 17.09C17.89 16.68 18.22 16.1 18.32 15.47C18.54 13.41 18.52 11.33 18.25 9.27H21.86C23.37 9.27 23.42 10.24 23.42 10.78V14.94H25.98V10.09C25.98 8.48 25.29 7.12 23.3 7.12H7.32V14.73H9.74V9.18H14.65C15.4 9.18 15.86 9.32 15.86 10.57V14.66C15.86 15.3 15.65 15.85 14.47 15.85H2.34V2.11ZM0 34.67H33.22V0H0V34.67Z" fill="url(#paint0_radial_301_149)"/>
<path d="M105.692 5.19C104.572 5.25 103.443 5.25 102.323 5.19C102.063 5.48 102.063 5.93 102.323 6.22C102.693 6.24 103.053 6.33 103.393 6.48C103.483 6.54 103.473 6.7 103.393 6.95L100.613 15.04L98.0725 7.1C97.9725 6.75 97.9825 6.54 98.1225 6.42C98.3925 6.28 98.6825 6.19 98.9825 6.16C99.1825 5.86 99.1825 5.47 98.9825 5.18C97.5625 5.26 96.1425 5.26 94.7225 5.18C94.5225 5.5 94.5225 5.9 94.7225 6.21C95.0425 6.18 95.3625 6.27 95.6325 6.46C95.9025 6.65 96.1025 6.93 96.2025 7.24C96.5525 8.44 96.6425 8.48 96.4625 9.31L94.2725 15.07L91.6325 6.81C91.4925 6.25 92.4325 6.29 92.4425 6.29C92.6725 5.98 92.6725 5.56 92.4425 5.26C91.1125 5.34 89.7725 5.34 88.4425 5.26C88.2425 5.58 88.2425 5.98 88.4425 6.29C89.1625 6.29 89.4325 6.29 89.7125 7.17C89.7925 7.44 92.8025 16.66 93.0625 17.39C93.1025 17.54 93.1925 17.68 93.3225 17.77C93.5725 17.97 93.9225 17.97 94.1725 17.77C94.2925 17.67 94.3825 17.54 94.4325 17.39C94.8725 16.36 97.0725 10.43 97.0725 10.43C97.0725 10.43 98.8725 15.99 99.3025 17.39C99.3425 17.55 99.4325 17.69 99.5625 17.79C99.8125 17.99 100.173 17.99 100.423 17.79C100.553 17.69 100.633 17.55 100.673 17.39L104.262 7.27C104.352 6.95 104.553 6.68 104.823 6.48C105.083 6.29 105.412 6.21 105.732 6.23C105.852 6.08 105.922 5.91 105.952 5.72C105.982 5.53 105.953 5.34 105.893 5.16H105.702L105.692 5.19ZM61.8025 7.09C61.8025 6.68 61.9525 6.06 63.1725 6.06C63.7125 5.99 64.2525 6.14 64.6725 6.47C65.1025 6.82 65.3925 7.32 65.4625 7.86C65.9725 9.13 65.3425 10.58 64.0725 11.08C63.6325 11.25 63.1625 11.3 62.7025 11.21H61.8025V7.08V7.09ZM58.2725 5.66C58.2725 5.85 58.3425 6.04 58.4725 6.18C58.6625 6.18 59.5925 6.25 59.6925 6.45C59.8725 6.84 59.9525 7.26 59.9025 7.69C59.9025 16.27 59.9725 15.77 59.6925 16.36C59.3025 16.55 58.8625 16.63 58.4325 16.62C58.2025 16.93 58.2325 17.36 58.4925 17.65H63.4125C63.6525 17.41 63.5725 16.95 63.4125 16.62C62.9725 16.64 62.5425 16.55 62.1525 16.36C61.8225 16.02 61.8925 15.09 61.8925 12.16C63.3225 12.08 63.6325 12.64 63.7225 12.78C63.8125 12.92 65.0625 14.98 65.6425 15.95C65.8925 16.44 66.2625 16.86 66.7025 17.18C67.1425 17.49 67.6425 17.7 68.1825 17.77C68.5025 17.79 68.8125 17.72 69.0925 17.56C69.1725 17.36 69.1725 17.14 69.0925 16.94H68.9125C67.9225 16.99 67.6825 16.16 65.1625 11.85C65.8125 11.58 66.3725 11.13 66.7625 10.54C67.1625 9.94 67.3825 9.24 67.3925 8.52C67.3925 8.06 67.3125 7.6 67.1425 7.17C66.9725 6.75 66.7225 6.36 66.4025 6.03C65.2325 4.83 62.7325 5.19 60.9225 5.19C59.5025 5.19 58.7725 5.14 58.4825 5.14C58.3525 5.28 58.2825 5.46 58.2825 5.66H58.2725ZM153.692 7.17C154.582 7.89 155.192 8.9 155.412 10.03C155.762 11.46 155.752 12.96 155.362 14.39H155.353C154.483 16.74 151.582 16.65 151.052 16.67C150.322 16.67 149.222 16.67 149.222 15.9V6.9C149.222 6.57 149.303 6.17 150.593 6.18C151.713 6.11 152.822 6.46 153.692 7.16V7.17ZM145.823 5.65C145.823 5.84 145.892 6.03 146.022 6.17C146.442 6.15 146.863 6.24 147.233 6.43C147.333 6.53 147.433 6.79 147.433 7.68V15.15C147.433 16.08 147.283 16.34 147.233 16.39C146.863 16.6 146.442 16.69 146.022 16.65C145.752 16.94 145.752 17.39 146.022 17.68H151.802C158.242 17.62 157.892 11.95 157.892 11.71C157.892 10.84 157.703 9.97 157.373 9.17C157.043 8.37 156.563 7.65 155.953 7.04C155.353 6.44 154.643 5.97 153.853 5.65C153.073 5.34 152.243 5.19 151.403 5.22V5.18C145.603 5.18 146.582 5.13 146.032 5.13C145.902 5.27 145.832 5.45 145.832 5.65H145.823ZM164.843 5.12H162.403C162.213 5.44 162.213 5.84 162.403 6.15C162.843 6.14 163.272 6.23 163.672 6.41C163.772 6.51 163.922 6.77 163.922 7.65V15.08C163.922 16.31 163.833 16.59 162.353 16.59C162.163 16.91 162.163 17.3 162.353 17.62H164.793C167.533 17.56 171.163 17.62 171.233 17.62C171.573 16.53 171.833 15.42 171.993 14.29C171.653 14.12 171.262 14.08 170.882 14.17C170.682 14.56 170.393 16.61 168.603 16.61H166.112C165.852 16.61 165.603 16.61 165.603 15.99V11.57C166.453 11.5 167.302 11.55 168.142 11.73C168.572 11.91 168.603 12.3 168.603 12.76C168.723 12.89 168.893 12.97 169.063 12.97C169.153 12.97 169.252 12.97 169.332 12.92C169.422 12.88 169.503 12.83 169.563 12.76C169.493 11.64 169.493 10.51 169.563 9.38C169.233 9.04 168.642 9.22 168.642 9.38C168.592 10.05 168.492 10.27 168.392 10.32C168.122 10.59 166.562 10.53 165.642 10.53V6.84C165.642 6.54 165.793 6.16 166.153 6.17H168.073C168.993 6.1 169.573 6.64 170.043 8.14C170.043 8.31 170.573 8.28 170.903 8.14C171.003 8.14 171.022 8.07 171.002 7.99C170.802 6.64 170.643 5.71 170.603 5.34C170.603 5.24 170.603 5.13 170.343 5.13C169.913 5.2 169.593 5.13 164.823 5.13L164.843 5.12ZM47.5425 15.56V11.43C49.0925 11.43 50.1225 11.3 51.1925 12.26C51.4725 12.54 51.6925 12.86 51.8325 13.23C51.9825 13.6 52.0525 13.99 52.0525 14.38C52.1625 16.57 49.8625 16.7 48.9625 16.64H48.9125C47.6925 16.58 47.5425 16.04 47.5425 15.56ZM49.8325 6.28C50.1125 6.38 50.3625 6.54 50.5625 6.76C50.7725 6.98 50.9325 7.23 51.0325 7.52C51.1325 7.81 51.1725 8.11 51.1525 8.41C51.0825 9.7 50.3425 10.38 48.7225 10.38H47.5525V6.8C47.5525 6.4 47.5525 6.33 47.9125 6.23C48.2625 6.18 48.6225 6.16 48.9825 6.18C49.2725 6.15 49.5625 6.18 49.8425 6.29L49.8325 6.28ZM46.5925 5.11H44.2025C44.0725 5.25 44.0025 5.43 44.0025 5.63C44.0025 5.82 44.0725 6.01 44.2025 6.15C44.6225 6.14 45.0425 6.23 45.4225 6.42C45.5225 6.52 45.6225 6.78 45.6225 7.66V15.13C45.6225 16.06 45.4725 16.32 45.4225 16.38C45.0525 16.58 44.6225 16.67 44.2025 16.64C43.9325 16.93 43.9325 17.38 44.2025 17.67H49.2725C50.6125 17.75 51.9325 17.32 52.9725 16.48C53.2725 16.14 53.5125 15.75 53.6625 15.33C53.8225 14.9 53.8925 14.44 53.8725 13.98C53.8725 13.23 53.6425 12.5 53.2025 11.9C52.7725 11.31 52.1425 10.9 51.4425 10.72V10.65C51.8725 10.39 52.2225 10.04 52.4725 9.62C52.7325 9.19 52.8825 8.72 52.9225 8.22C52.9225 6.16 51.5525 5.12 48.8625 5.12H46.5825L46.5925 5.11ZM116.073 6.73C115.413 7.36 114.892 8.13 114.552 8.98C114.212 9.84 114.052 10.77 114.092 11.7C114.082 12.73 114.292 13.75 114.702 14.7C115.132 15.65 115.813 16.46 116.673 17.03C117.583 17.63 118.653 17.96 119.753 17.98H119.973C120.913 17.98 121.833 17.73 122.653 17.28C123.493 16.82 124.203 16.17 124.743 15.38V15.17C124.733 15.04 124.673 14.92 124.573 14.84C124.483 14.76 124.362 14.71 124.232 14.71L124.272 14.69H124.223V14.74C123.683 15.39 123.013 15.93 122.253 16.3C121.553 16.62 120.792 16.78 120.022 16.77C119.202 16.79 118.403 16.5 117.793 15.94C117.183 15.37 116.713 14.66 116.433 13.88C116.133 13.03 116.003 12.13 116.033 11.23C116.033 10.53 116.122 9.83 116.332 9.17C116.502 8.62 116.762 8.1 117.092 7.62C117.402 7.15 117.812 6.76 118.302 6.47C118.782 6.19 119.322 6.03 119.882 6.01C120.762 5.95 121.642 6.22 122.332 6.77C123.042 7.33 123.542 8.12 123.732 9.01V9.11H123.832C124.092 9.18 124.362 9.14 124.592 9.01H124.692V8.91C124.642 8.29 124.483 7.3 124.293 6.01V5.91H124.132C123.642 5.81 123.173 5.68 122.713 5.49C121.863 5.22 120.973 5.08 120.073 5.07H120.052C118.552 5.07 117.122 5.67 116.062 6.73H116.073ZM135.793 16.87C135.223 16.87 134.672 16.73 134.162 16.48C133.652 16.23 133.192 15.86 132.832 15.42C132.192 14.5 131.773 13.44 131.603 12.33C131.433 11.21 131.513 10.07 131.853 8.99C132.003 8.22 132.393 7.52 132.963 6.99C133.523 6.47 134.233 6.16 134.993 6.09C135.563 6.09 136.132 6.22 136.642 6.48C137.162 6.74 137.613 7.13 137.953 7.6C139.543 9.96 139.643 13.02 138.213 15.48H138.293C138.023 15.91 137.662 16.26 137.222 16.51C136.792 16.75 136.303 16.88 135.813 16.88L135.793 16.87ZM135.453 5H135.332C131.792 5 129.572 7.9 129.552 11.69C129.532 12.51 129.663 13.32 129.953 14.09C130.243 14.85 130.673 15.54 131.233 16.13C131.783 16.71 132.443 17.16 133.183 17.47C133.913 17.77 134.693 17.92 135.483 17.89C139.673 17.96 141.403 14.34 141.403 11.36C141.423 10.53 141.283 9.71 140.993 8.93C140.703 8.16 140.263 7.46 139.703 6.87C139.153 6.28 138.492 5.81 137.752 5.49C137.032 5.18 136.262 5.01 135.472 5.01H135.442L135.453 5ZM77.8925 16.5C77.3825 16.25 76.9225 15.88 76.5625 15.44C75.9225 14.52 75.5025 13.46 75.3325 12.35C75.1625 11.23 75.2425 10.09 75.5825 9.01C75.7325 8.24 76.1225 7.54 76.6925 7.01C77.2525 6.49 77.9725 6.18 78.7325 6.11C79.3025 6.11 79.8725 6.24 80.3825 6.5C80.9025 6.76 81.3525 7.15 81.6925 7.61C83.2825 9.97 83.3825 13.03 81.9425 15.49H82.0025C81.7325 15.92 81.3725 16.27 80.9325 16.52C80.5025 16.76 80.0225 16.89 79.5225 16.89C78.9525 16.89 78.4025 16.75 77.8925 16.5ZM79.1925 5.01H79.0425C75.5025 5.01 73.2825 7.91 73.2625 11.7C73.2325 12.52 73.3725 13.33 73.6625 14.1C73.9425 14.86 74.3825 15.55 74.9425 16.14C75.4925 16.72 76.1625 17.17 76.9025 17.48C77.6325 17.78 78.4125 17.93 79.2025 17.9C83.3925 17.97 85.1225 14.35 85.1225 11.37C85.1425 10.54 84.9925 9.71 84.7025 8.93C84.4125 8.16 83.9725 7.45 83.4025 6.85C82.8425 6.26 82.1725 5.79 81.4225 5.47C80.7225 5.17 79.9625 5.01 79.2025 5.01H79.1925Z" fill="url(#paint1_radial_301_149)"/>
<path d="M105.692 5.19C104.572 5.25 103.443 5.25 102.323 5.19C102.063 5.48 102.063 5.93 102.323 6.22C102.693 6.24 103.053 6.33 103.393 6.48C103.483 6.54 103.473 6.7 103.393 6.95L100.613 15.04L98.0725 7.1C97.9725 6.75 97.9825 6.54 98.1225 6.42C98.3925 6.28 98.6825 6.19 98.9825 6.16C99.1825 5.86 99.1825 5.47 98.9825 5.18C97.5625 5.26 96.1425 5.26 94.7225 5.18C94.5225 5.5 94.5225 5.9 94.7225 6.21C95.0425 6.18 95.3625 6.27 95.6325 6.46C95.9025 6.65 96.1025 6.93 96.2025 7.24C96.5525 8.44 96.6425 8.48 96.4625 9.31L94.2725 15.07L91.6325 6.81C91.4925 6.25 92.4325 6.29 92.4425 6.29C92.6725 5.98 92.6725 5.56 92.4425 5.26C91.1125 5.34 89.7725 5.34 88.4425 5.26C88.2425 5.58 88.2425 5.98 88.4425 6.29C89.1625 6.29 89.4325 6.29 89.7125 7.17C89.7925 7.44 92.8025 16.66 93.0625 17.39C93.1025 17.54 93.1925 17.68 93.3225 17.77C93.5725 17.97 93.9225 17.97 94.1725 17.77C94.2925 17.67 94.3825 17.54 94.4325 17.39C94.8725 16.36 97.0725 10.43 97.0725 10.43C97.0725 10.43 98.8725 15.99 99.3025 17.39C99.3425 17.55 99.4325 17.69 99.5625 17.79C99.8125 17.99 100.173 17.99 100.423 17.79C100.553 17.69 100.633 17.55 100.673 17.39L104.262 7.27C104.352 6.95 104.553 6.68 104.823 6.48C105.083 6.29 105.412 6.21 105.732 6.23C105.852 6.08 105.922 5.91 105.952 5.72C105.982 5.53 105.953 5.34 105.893 5.16H105.702L105.692 5.19ZM61.8025 7.09C61.8025 6.68 61.9525 6.06 63.1725 6.06C63.7125 5.99 64.2525 6.14 64.6725 6.47C65.1025 6.82 65.3925 7.32 65.4625 7.86C65.9725 9.13 65.3425 10.58 64.0725 11.08C63.6325 11.25 63.1625 11.3 62.7025 11.21H61.8025V7.08V7.09ZM58.2725 5.66C58.2725 5.85 58.3425 6.04 58.4725 6.18C58.6625 6.18 59.5925 6.25 59.6925 6.45C59.8725 6.84 59.9525 7.26 59.9025 7.69C59.9025 16.27 59.9725 15.77 59.6925 16.36C59.3025 16.55 58.8625 16.63 58.4325 16.62C58.2025 16.93 58.2325 17.36 58.4925 17.65H63.4125C63.6525 17.41 63.5725 16.95 63.4125 16.62C62.9725 16.64 62.5425 16.55 62.1525 16.36C61.8225 16.02 61.8925 15.09 61.8925 12.16C63.3225 12.08 63.6325 12.64 63.7225 12.78C63.8125 12.92 65.0625 14.98 65.6425 15.95C65.8925 16.44 66.2625 16.86 66.7025 17.18C67.1425 17.49 67.6425 17.7 68.1825 17.77C68.5025 17.79 68.8125 17.72 69.0925 17.56C69.1725 17.36 69.1725 17.14 69.0925 16.94H68.9125C67.9225 16.99 67.6825 16.16 65.1625 11.85C65.8125 11.58 66.3725 11.13 66.7625 10.54C67.1625 9.94 67.3825 9.24 67.3925 8.52C67.3925 8.06 67.3125 7.6 67.1425 7.17C66.9725 6.75 66.7225 6.36 66.4025 6.03C65.2325 4.83 62.7325 5.19 60.9225 5.19C59.5025 5.19 58.7725 5.14 58.4825 5.14C58.3525 5.28 58.2825 5.46 58.2825 5.66H58.2725ZM153.692 7.17C154.582 7.89 155.192 8.9 155.412 10.03C155.762 11.46 155.752 12.96 155.362 14.39H155.353C154.483 16.74 151.582 16.65 151.052 16.67C150.322 16.67 149.222 16.67 149.222 15.9V6.9C149.222 6.57 149.303 6.17 150.593 6.18C151.713 6.11 152.822 6.46 153.692 7.16V7.17ZM145.823 5.65C145.823 5.84 145.892 6.03 146.022 6.17C146.442 6.15 146.863 6.24 147.233 6.43C147.333 6.53 147.433 6.79 147.433 7.68V15.15C147.433 16.08 147.283 16.34 147.233 16.39C146.863 16.6 146.442 16.69 146.022 16.65C145.752 16.94 145.752 17.39 146.022 17.68H151.802C158.242 17.62 157.892 11.95 157.892 11.71C157.892 10.84 157.703 9.97 157.373 9.17C157.043 8.37 156.563 7.65 155.953 7.04C155.353 6.44 154.643 5.97 153.853 5.65C153.073 5.34 152.243 5.19 151.403 5.22V5.18C145.603 5.18 146.582 5.13 146.032 5.13C145.902 5.27 145.832 5.45 145.832 5.65H145.823ZM164.843 5.12H162.403C162.213 5.44 162.213 5.84 162.403 6.15C162.843 6.14 163.272 6.23 163.672 6.41C163.772 6.51 163.922 6.77 163.922 7.65V15.08C163.922 16.31 163.833 16.59 162.353 16.59C162.163 16.91 162.163 17.3 162.353 17.62H164.793C167.533 17.56 171.163 17.62 171.233 17.62C171.573 16.53 171.833 15.42 171.993 14.29C171.653 14.12 171.262 14.08 170.882 14.17C170.682 14.56 170.393 16.61 168.603 16.61H166.112C165.852 16.61 165.603 16.61 165.603 15.99V11.57C166.453 11.5 167.302 11.55 168.142 11.73C168.572 11.91 168.603 12.3 168.603 12.76C168.723 12.89 168.893 12.97 169.063 12.97C169.153 12.97 169.252 12.97 169.332 12.92C169.422 12.88 169.503 12.83 169.563 12.76C169.493 11.64 169.493 10.51 169.563 9.38C169.233 9.04 168.642 9.22 168.642 9.38C168.592 10.05 168.492 10.27 168.392 10.32C168.122 10.59 166.562 10.53 165.642 10.53V6.84C165.642 6.54 165.793 6.16 166.153 6.17H168.073C168.993 6.1 169.573 6.64 170.043 8.14C170.043 8.31 170.573 8.28 170.903 8.14C171.003 8.14 171.022 8.07 171.002 7.99C170.802 6.64 170.643 5.71 170.603 5.34C170.603 5.24 170.603 5.13 170.343 5.13C169.913 5.2 169.593 5.13 164.823 5.13L164.843 5.12ZM47.5425 15.56V11.43C49.0925 11.43 50.1225 11.3 51.1925 12.26C51.4725 12.54 51.6925 12.86 51.8325 13.23C51.9825 13.6 52.0525 13.99 52.0525 14.38C52.1625 16.57 49.8625 16.7 48.9625 16.64H48.9125C47.6925 16.58 47.5425 16.04 47.5425 15.56ZM49.8325 6.28C50.1125 6.38 50.3625 6.54 50.5625 6.76C50.7725 6.98 50.9325 7.23 51.0325 7.52C51.1325 7.81 51.1725 8.11 51.1525 8.41C51.0825 9.7 50.3425 10.38 48.7225 10.38H47.5525V6.8C47.5525 6.4 47.5525 6.33 47.9125 6.23C48.2625 6.18 48.6225 6.16 48.9825 6.18C49.2725 6.15 49.5625 6.18 49.8425 6.29L49.8325 6.28ZM46.5925 5.11H44.2025C44.0725 5.25 44.0025 5.43 44.0025 5.63C44.0025 5.82 44.0725 6.01 44.2025 6.15C44.6225 6.14 45.0425 6.23 45.4225 6.42C45.5225 6.52 45.6225 6.78 45.6225 7.66V15.13C45.6225 16.06 45.4725 16.32 45.4225 16.38C45.0525 16.58 44.6225 16.67 44.2025 16.64C43.9325 16.93 43.9325 17.38 44.2025 17.67H49.2725C50.6125 17.75 51.9325 17.32 52.9725 16.48C53.2725 16.14 53.5125 15.75 53.6625 15.33C53.8225 14.9 53.8925 14.44 53.8725 13.98C53.8725 13.23 53.6425 12.5 53.2025 11.9C52.7725 11.31 52.1425 10.9 51.4425 10.72V10.65C51.8725 10.39 52.2225 10.04 52.4725 9.62C52.7325 9.19 52.8825 8.72 52.9225 8.22C52.9225 6.16 51.5525 5.12 48.8625 5.12H46.5825L46.5925 5.11ZM116.073 6.73C115.413 7.36 114.892 8.13 114.552 8.98C114.212 9.84 114.052 10.77 114.092 11.7C114.082 12.73 114.292 13.75 114.702 14.7C115.132 15.65 115.813 16.46 116.673 17.03C117.583 17.63 118.653 17.96 119.753 17.98H119.973C120.913 17.98 121.833 17.73 122.653 17.28C123.493 16.82 124.203 16.17 124.743 15.38V15.17C124.733 15.04 124.673 14.92 124.573 14.84C124.483 14.76 124.362 14.71 124.232 14.71L124.272 14.69H124.223V14.74C123.683 15.39 123.013 15.93 122.253 16.3C121.553 16.62 120.792 16.78 120.022 16.77C119.202 16.79 118.403 16.5 117.793 15.94C117.183 15.37 116.713 14.66 116.433 13.88C116.133 13.03 116.003 12.13 116.033 11.23C116.033 10.53 116.122 9.83 116.332 9.17C116.502 8.62 116.762 8.1 117.092 7.62C117.402 7.15 117.812 6.76 118.302 6.47C118.782 6.19 119.322 6.03 119.882 6.01C120.762 5.95 121.642 6.22 122.332 6.77C123.042 7.33 123.542 8.12 123.732 9.01V9.11H123.832C124.092 9.18 124.362 9.14 124.592 9.01H124.692V8.91C124.642 8.29 124.483 7.3 124.293 6.01V5.91H124.132C123.642 5.81 123.173 5.68 122.713 5.49C121.863 5.22 120.973 5.08 120.073 5.07H120.052C118.552 5.07 117.122 5.67 116.062 6.73H116.073ZM135.793 16.87C135.223 16.87 134.672 16.73 134.162 16.48C133.652 16.23 133.192 15.86 132.832 15.42C132.192 14.5 131.773 13.44 131.603 12.33C131.433 11.21 131.513 10.07 131.853 8.99C132.003 8.22 132.393 7.52 132.963 6.99C133.523 6.47 134.233 6.16 134.993 6.09C135.563 6.09 136.132 6.22 136.642 6.48C137.162 6.74 137.613 7.13 137.953 7.6C139.543 9.96 139.643 13.02 138.213 15.48H138.293C138.023 15.91 137.662 16.26 137.222 16.51C136.792 16.75 136.303 16.88 135.813 16.88L135.793 16.87ZM135.453 5H135.332C131.792 5 129.572 7.9 129.552 11.69C129.532 12.51 129.663 13.32 129.953 14.09C130.243 14.85 130.673 15.54 131.233 16.13C131.783 16.71 132.443 17.16 133.183 17.47C133.913 17.77 134.693 17.92 135.483 17.89C139.673 17.96 141.403 14.34 141.403 11.36C141.423 10.53 141.283 9.71 140.993 8.93C140.703 8.16 140.263 7.46 139.703 6.87C139.153 6.28 138.492 5.81 137.752 5.49C137.032 5.18 136.262 5.01 135.472 5.01H135.442L135.453 5ZM77.8925 16.5C77.3825 16.25 76.9225 15.88 76.5625 15.44C75.9225 14.52 75.5025 13.46 75.3325 12.35C75.1625 11.23 75.2425 10.09 75.5825 9.01C75.7325 8.24 76.1225 7.54 76.6925 7.01C77.2525 6.49 77.9725 6.18 78.7325 6.11C79.3025 6.11 79.8725 6.24 80.3825 6.5C80.9025 6.76 81.3525 7.15 81.6925 7.61C83.2825 9.97 83.3825 13.03 81.9425 15.49H82.0025C81.7325 15.92 81.3725 16.27 80.9325 16.52C80.5025 16.76 80.0225 16.89 79.5225 16.89C78.9525 16.89 78.4025 16.75 77.8925 16.5ZM79.1925 5.01H79.0425C75.5025 5.01 73.2825 7.91 73.2625 11.7C73.2325 12.52 73.3725 13.33 73.6625 14.1C73.9425 14.86 74.3825 15.55 74.9425 16.14C75.4925 16.72 76.1625 17.17 76.9025 17.48C77.6325 17.78 78.4125 17.93 79.2025 17.9C83.3925 17.97 85.1225 14.35 85.1225 11.37C85.1425 10.54 84.9925 9.71 84.7025 8.93C84.4125 8.16 83.9725 7.45 83.4025 6.85C82.8425 6.26 82.1725 5.79 81.4225 5.47C80.7225 5.17 79.9625 5.01 79.2025 5.01H79.1925Z" fill="#31C145"/>
<path d="M105.696 5.19032C104.576 5.25038 103.446 5.25038 102.326 5.19032C102.066 5.48074 102.066 5.9314 102.326 6.22191C102.696 6.24193 103.056 6.33206 103.396 6.48226C103.486 6.5424 103.476 6.70265 103.396 6.95303L100.616 15.0551L98.0757 7.10323C97.9757 6.75266 97.9857 6.54241 98.1256 6.4222C98.3957 6.28197 98.6857 6.19184 98.9857 6.16177C99.1858 5.86129 99.1858 5.47069 98.9857 5.18027C97.5656 5.26043 96.1456 5.26043 94.7255 5.18027C94.5255 5.50076 94.5255 5.90142 94.7255 6.21186C95.0455 6.18179 95.3655 6.27192 95.6355 6.46224C95.9055 6.65256 96.1055 6.93301 96.2056 7.24345C96.5556 8.44526 96.6456 8.48538 96.4656 9.3166L94.2755 15.0854L91.6353 6.8128C91.4952 6.2519 92.4354 6.29203 92.4453 6.29203C92.6754 5.9815 92.6754 5.56082 92.4453 5.26043C91.1153 5.34051 89.7752 5.34051 88.4451 5.26043C88.2451 5.58093 88.2451 5.9815 88.4451 6.29203C89.1651 6.29203 89.4352 6.29203 89.7152 7.17334C89.7952 7.44374 92.8054 16.6783 93.0653 17.4089C93.1053 17.5597 93.1954 17.6993 93.3254 17.7894C93.5754 17.9896 93.9254 17.9896 94.1754 17.7894C94.2954 17.6897 94.3854 17.5597 94.4355 17.4089C94.8755 16.3776 97.0756 10.4383 97.0756 10.4383C97.0756 10.4383 98.8757 16.0067 99.3058 17.4089C99.3458 17.5693 99.4358 17.7097 99.5657 17.8093C99.8157 18.0104 100.176 18.0104 100.426 17.8093C100.556 17.7097 100.636 17.5693 100.676 17.4089L104.266 7.27353C104.356 6.95303 104.556 6.68254 104.826 6.48226C105.086 6.29202 105.416 6.21186 105.736 6.23188C105.856 6.08169 105.926 5.91139 105.956 5.72107C105.986 5.53083 105.956 5.34051 105.896 5.16025H105.706L105.696 5.19032ZM61.8035 7.09326C61.8035 6.68255 61.9535 6.06167 63.1736 6.06167C63.7137 5.99155 64.2537 6.14175 64.6737 6.47229C65.1037 6.82277 65.3938 7.32353 65.4637 7.86442C65.9738 9.13634 65.3437 10.5886 64.0737 11.0894C63.6337 11.2597 63.1636 11.3097 62.7036 11.2195H61.8035V7.08321V7.09326ZM58.2733 5.66101C58.2733 5.85133 58.3433 6.04156 58.4733 6.18179C58.6633 6.18179 59.5934 6.2519 59.6934 6.45227C59.8734 6.84279 59.9534 7.26347 59.9034 7.69412C59.9034 16.2875 59.9735 15.7865 59.6934 16.3776C59.3034 16.5674 58.8634 16.648 58.4333 16.6376C58.2034 16.9487 58.2333 17.3795 58.4934 17.6698H63.4136C63.6536 17.4289 63.5736 16.9687 63.4136 16.6376C62.9736 16.6575 62.5436 16.5674 62.1536 16.3776C61.8236 16.037 61.8936 15.1053 61.8936 12.1711C63.3236 12.0909 63.6337 12.6518 63.7236 12.792C63.8136 12.9322 65.0637 14.9953 65.6438 15.9668C65.8938 16.4573 66.2638 16.8785 66.7038 17.1992C67.1438 17.5095 67.6439 17.7192 68.1839 17.7894C68.5039 17.8093 68.814 17.74 69.094 17.5797C69.174 17.3795 69.174 17.1585 69.094 16.9583H68.9139C67.9239 17.0085 67.6839 16.1774 65.1637 11.8605C65.8138 11.5901 66.3738 11.1395 66.7638 10.5486C67.1639 9.94763 67.3838 9.2465 67.3939 8.52543C67.3939 8.06471 67.3139 7.60399 67.1438 7.17334C66.9738 6.75266 66.7239 6.36205 66.4038 6.03159C65.2338 4.8297 62.7336 5.19032 60.9235 5.19032C59.5034 5.19032 58.7734 5.14022 58.4834 5.14022C58.3533 5.28045 58.2834 5.46072 58.2834 5.66101H58.2733ZM153.699 7.17334C154.589 7.89449 155.199 8.90598 155.419 10.0378C155.769 11.4699 155.759 12.9723 155.369 14.4045H155.359C154.489 16.7581 151.589 16.6679 151.059 16.6879C150.328 16.6879 149.229 16.6879 149.229 15.9165V6.90294C149.229 6.57239 149.309 6.17182 150.599 6.18179C151.719 6.11167 152.829 6.46224 153.699 7.16329V7.17334ZM145.828 5.65104C145.828 5.84127 145.898 6.03159 146.029 6.17182C146.449 6.1518 146.868 6.24193 147.239 6.43216C147.339 6.53235 147.438 6.79279 147.438 7.68415V15.166C147.438 16.0968 147.288 16.3577 147.239 16.4079C146.868 16.6177 146.449 16.7078 146.029 16.6679C145.758 16.9583 145.758 17.4089 146.029 17.6993H151.809C158.249 17.6395 157.899 11.9607 157.899 11.7203C157.899 10.849 157.709 9.9777 157.379 9.17647C157.049 8.37523 156.569 7.65408 155.959 7.04317C155.359 6.44222 154.649 5.97153 153.859 5.65104C153.079 5.34051 152.249 5.19032 151.409 5.22031V5.18027C145.608 5.18027 146.589 5.13017 146.039 5.13017C145.908 5.2704 145.838 5.45066 145.838 5.65104H145.828ZM164.85 5.12021H162.409C162.22 5.4407 162.22 5.84128 162.409 6.1518C162.85 6.14175 163.279 6.23188 163.679 6.41215C163.779 6.51234 163.929 6.77277 163.929 7.65408V15.0958C163.929 16.3273 163.839 16.6081 162.36 16.6081C162.169 16.9279 162.169 17.3188 162.36 17.6395H164.8C167.539 17.5797 171.17 17.6395 171.24 17.6395C171.58 16.5475 171.84 15.4364 172 14.3043C171.66 14.1341 171.27 14.094 170.89 14.1842C170.69 14.5749 170.4 16.6281 168.61 16.6281H166.12C165.859 16.6281 165.609 16.6281 165.609 16.0067V11.5802C166.46 11.5101 167.309 11.5601 168.15 11.7403C168.58 11.9207 168.61 12.3113 168.61 12.7719C168.73 12.9022 168.9 12.9823 169.069 12.9823C169.16 12.9823 169.26 12.9823 169.34 12.9322C169.43 12.8921 169.51 12.842 169.57 12.7719C169.5 11.6502 169.5 10.5185 169.57 9.38672C169.24 9.04621 168.65 9.22647 168.65 9.38672C168.6 10.0578 168.5 10.2781 168.4 10.3282C168.13 10.5986 166.569 10.5385 165.65 10.5385V6.84279C165.65 6.5424 165.8 6.16176 166.16 6.17182H168.08C169 6.1017 169.58 6.64251 170.05 8.14487C170.05 8.31509 170.58 8.28501 170.91 8.14487C171.01 8.14487 171.03 8.07476 171.01 7.99459C170.81 6.64251 170.65 5.7111 170.61 5.34051C170.61 5.24033 170.61 5.13017 170.35 5.13017C169.92 5.20029 169.6 5.13017 164.829 5.13017L164.85 5.12021ZM47.5427 15.5759V11.4399C49.0928 11.4399 50.1229 11.3097 51.1929 12.2712C51.4729 12.5516 51.693 12.8721 51.833 13.2427C51.983 13.6133 52.053 14.0039 52.053 14.3945C52.163 16.5882 49.8628 16.7182 48.9628 16.6575H48.9128C47.6927 16.5977 47.5427 16.0569 47.5427 15.5759ZM49.8328 6.28198C50.1129 6.38216 50.3629 6.5424 50.5629 6.76271C50.7729 6.98302 50.9329 7.2334 51.0329 7.52391C51.1329 7.81433 51.1729 8.1148 51.1529 8.41527C51.0829 9.70721 50.3429 10.3883 48.7228 10.3883H47.5527V6.80275C47.5527 6.40218 47.5527 6.33207 47.9127 6.23188C48.2627 6.18179 48.6228 6.16177 48.9828 6.18179C49.2728 6.1518 49.5628 6.18179 49.8428 6.29203L49.8328 6.28198ZM46.5926 5.11015H44.2025C44.0725 5.25038 44.0025 5.43064 44.0025 5.63093C44.0025 5.82125 44.0725 6.01158 44.2025 6.1518C44.6225 6.14175 45.0426 6.23188 45.4226 6.4222C45.5226 6.5223 45.6226 6.78273 45.6226 7.66413V15.1452C45.6226 16.0769 45.4726 16.3377 45.4226 16.3975C45.0526 16.5977 44.6225 16.6879 44.2025 16.6575C43.9325 16.9487 43.9325 17.3994 44.2025 17.6897H49.2728C50.6129 17.7695 51.933 17.3387 52.9731 16.4981C53.273 16.1575 53.5131 15.7666 53.6631 15.3463C53.8231 14.9155 53.8931 14.4546 53.8731 13.9938C53.8731 13.2427 53.643 12.5116 53.203 11.9106C52.7731 11.3197 52.143 10.9091 51.4429 10.7288V10.6587C51.873 10.3983 52.223 10.0477 52.473 9.62713C52.7331 9.19648 52.883 8.72571 52.923 8.22495C52.923 6.16177 51.5529 5.12021 48.8628 5.12021H46.5827L46.5926 5.11015ZM116.077 6.73264C115.417 7.36366 114.897 8.13482 114.557 8.98615C114.217 9.84744 114.057 10.7789 114.097 11.7103C114.087 12.7419 114.297 13.7635 114.707 14.7153C115.137 15.6661 115.817 16.4773 116.677 17.0484C117.587 17.6499 118.657 17.9801 119.757 18H119.977C120.917 18 121.837 17.7495 122.657 17.2989C123.497 16.8378 124.207 16.1869 124.747 15.3957V15.1859C124.737 15.0551 124.677 14.9355 124.577 14.8549C124.487 14.7751 124.367 14.7249 124.237 14.7249L124.277 14.7049H124.227V14.7552C123.687 15.4061 123.017 15.9469 122.257 16.3178C121.557 16.6376 120.797 16.7979 120.027 16.7884C119.207 16.8083 118.407 16.518 117.797 15.9573C117.187 15.3861 116.717 14.6746 116.437 13.8936C116.137 13.0424 116.007 12.141 116.037 11.2396C116.037 10.5385 116.127 9.83747 116.337 9.17647C116.507 8.62561 116.767 8.10475 117.097 7.62401C117.407 7.15332 117.817 6.76271 118.307 6.47229C118.787 6.19184 119.327 6.03159 119.887 6.01157C120.767 5.95143 121.647 6.22191 122.337 6.77277C123.047 7.33359 123.547 8.12477 123.737 9.01622V9.11632H123.837C124.097 9.18644 124.367 9.14639 124.597 9.01622H124.697V8.91603C124.647 8.29507 124.487 7.30351 124.297 6.01157V5.91138H124.137C123.647 5.81128 123.177 5.68103 122.717 5.49079C121.867 5.22031 120.977 5.08017 120.077 5.07012H120.057C118.557 5.07012 117.127 5.67106 116.067 6.73264H116.077ZM135.798 16.8881C135.228 16.8881 134.678 16.7477 134.168 16.4981C133.658 16.2476 133.197 15.8767 132.838 15.4364C132.198 14.5146 131.778 13.453 131.608 12.3413C131.437 11.2195 131.517 10.0778 131.858 8.99611C132.008 8.22495 132.397 7.5239 132.968 6.99307C133.528 6.47229 134.237 6.16176 134.998 6.09165C135.568 6.09165 136.138 6.22191 136.648 6.48226C137.168 6.74269 137.618 7.1333 137.958 7.60399C139.548 9.96765 139.648 13.0324 138.218 15.4962H138.298C138.028 15.9269 137.668 16.2771 137.228 16.5275C136.798 16.7685 136.308 16.8985 135.818 16.8985L135.798 16.8881ZM135.458 5H135.338C131.798 5 129.577 7.90446 129.558 11.7003C129.538 12.5215 129.667 13.3328 129.958 14.104C130.248 14.8653 130.678 15.556 131.238 16.1471C131.788 16.7277 132.448 17.1784 133.187 17.4895C133.917 17.7894 134.698 17.9402 135.488 17.9099C139.678 17.9801 141.408 14.3544 141.408 11.3698C141.428 10.5385 141.288 9.71727 140.998 8.93606C140.708 8.1649 140.268 7.46376 139.708 6.87287C139.158 6.28198 138.498 5.81129 137.758 5.49079C137.038 5.18027 136.268 5.01005 135.478 5.01005H135.448L135.458 5ZM77.8945 16.518C77.3844 16.2675 76.9245 15.8966 76.5644 15.4563C75.9244 14.5351 75.5043 13.4731 75.3343 12.3613C75.1643 11.2396 75.2443 10.0978 75.5843 9.01622C75.7343 8.24497 76.1244 7.54393 76.6944 7.01309C77.2545 6.49231 77.9745 6.18179 78.7346 6.11167C79.3046 6.11167 79.8746 6.24193 80.3847 6.50228C80.9047 6.76271 81.3547 7.15332 81.6947 7.61404C83.2848 9.9777 83.3848 13.0424 81.9448 15.5057H82.0047C81.7347 15.9365 81.3747 16.2875 80.9347 16.5379C80.5047 16.778 80.0246 16.908 79.5245 16.908C78.9545 16.908 78.4045 16.7685 77.8945 16.518ZM79.1945 5.01005H79.0445C75.5043 5.01005 73.2842 7.91451 73.2643 11.7103C73.2342 12.5316 73.3742 13.3428 73.6643 14.114C73.9443 14.8748 74.3843 15.5664 74.9443 16.1575C75.4943 16.7381 76.1644 17.1888 76.9044 17.4991C77.6344 17.7998 78.4145 17.9497 79.2045 17.9203C83.3948 17.9896 85.1249 14.3644 85.1249 11.3798C85.1449 10.5486 84.9949 9.71727 84.7049 8.93606C84.4149 8.1649 83.9748 7.45379 83.4048 6.85285C82.8448 6.26195 82.1747 5.79118 81.4247 5.47069C80.7246 5.1703 79.9646 5.01005 79.2045 5.01005H79.1945Z" fill="url(#paint2_radial_301_149)"/>
<path d="M86.8303 23.9333V26.1889H89.2081V26.9667H86.8303V29.8833H86V23.1167H89.8308V23.9333H86.8303Z" fill="#C5C5C5"/>
<path d="M95.4412 30C94.8058 30 94.2617 29.8542 93.8088 29.5625C93.3622 29.2708 93.0193 28.8625 92.7803 28.3375C92.5475 27.8125 92.4312 27.2 92.4312 26.5C92.4312 25.8 92.5475 25.1875 92.7803 24.6625C93.0193 24.1375 93.3622 23.7292 93.8088 23.4375C94.2617 23.1458 94.8058 23 95.4412 23C96.0765 23 96.6174 23.1458 97.0641 23.4375C97.517 23.7292 97.8598 24.1375 98.0925 24.6625C98.3316 25.1875 98.451 25.8 98.451 26.5C98.451 27.2 98.3316 27.8125 98.0925 28.3375C97.8598 28.8625 97.517 29.2708 97.0641 29.5625C96.6174 29.8542 96.0765 30 95.4412 30ZM95.4412 29.2222C96.1457 29.2222 96.6741 28.9792 97.0263 28.4931C97.3786 28.0005 97.5547 27.3361 97.5547 26.5C97.5547 25.6639 97.3786 25.0028 97.0263 24.5167C96.6741 24.0241 96.1457 23.7778 95.4412 23.7778C94.7366 23.7778 94.2083 24.0241 93.856 24.5167C93.5037 25.0028 93.3276 25.6639 93.3276 26.5C93.3276 27.3361 93.5037 28.0005 93.856 28.4931C94.2083 28.9792 94.7366 29.2222 95.4412 29.2222Z" fill="#C5C5C5"/>
<path d="M105.347 29.8833L104.016 27.2292H103.922H102.412V29.8833H101.582V23.1167H103.809C104.595 23.1167 105.18 23.2884 105.564 23.6319C105.947 23.969 106.139 24.4648 106.139 25.1194C106.139 25.6056 106.035 26.0171 105.828 26.3542C105.62 26.6912 105.315 26.931 104.913 27.0736L106.347 29.8833H105.347ZM103.818 26.4222C104.309 26.4222 104.667 26.325 104.894 26.1306C105.127 25.9296 105.243 25.5926 105.243 25.1194C105.243 24.6852 105.127 24.3806 104.894 24.2056C104.667 24.0241 104.306 23.9333 103.809 23.9333H102.412V26.4222H103.818Z" fill="#C5C5C5"/>
<path d="M121.721 29.8833H120.891V23.8556L118.749 29.8833H117.843L115.663 23.8944V29.8833H114.833V23.1167H116.286L118.315 28.6875L120.296 23.1167H121.721V29.8833Z" fill="#C5C5C5"/>
<path d="M125.915 23.9333V26.0722H128.792V26.85H125.915V29.0667H129V29.8833H125.084V23.1167H129V23.9333H125.915Z" fill="#C5C5C5"/>
<defs>
<radialGradient id="paint0_radial_301_149" cx="0" cy="0" r="1" gradientUnits="userSpaceOnUse" gradientTransform="translate(38.5 14) rotate(162.474) scale(69.737 37.7726)">
<stop offset="0.122984" stop-color="#C3A355"/>
<stop offset="1" stop-color="#FBF7B0"/>
</radialGradient>
<radialGradient id="paint1_radial_301_149" cx="0" cy="0" r="1" gradientUnits="userSpaceOnUse" gradientTransform="translate(103 26) rotate(-110.292) scale(63.437 110.295)">
<stop stop-color="#C3A355"/>
<stop offset="1" stop-color="#FBF7B0"/>
</radialGradient>
<radialGradient id="paint2_radial_301_149" cx="0" cy="0" r="1" gradientUnits="userSpaceOnUse" gradientTransform="translate(57.0526 1.96667) rotate(7.50616) scale(122.736 60.5854)">
<stop stop-color="#F42525"/>
<stop offset="0.166667" stop-color="#FB6F09"/>
<stop offset="0.338542" stop-color="#F8D20E"/>
<stop offset="0.484375" stop-color="#2AC030"/>
<stop offset="0.609375" stop-color="#5ABECC"/>
<stop offset="0.71875" stop-color="#9483D6"/>
<stop offset="1" stop-color="#E917BB"/>
</radialGradient>
</defs>
</svg>
