<svg width="152" height="125" viewBox="0 0 152 125" fill="none" xmlns="http://www.w3.org/2000/svg">
<path d="M16.8059 115.144H19.5179C21.5979 115.144 22.6379 116.056 22.6379 117.88C22.6379 118.8 22.3779 119.504 21.8579 119.992C21.3459 120.472 20.5939 120.712 19.6019 120.712H17.8619V123.496H16.8059V115.144ZM19.5659 119.728C20.2539 119.728 20.7459 119.588 21.0419 119.308C21.3459 119.028 21.4979 118.568 21.4979 117.928C21.4979 117.288 21.3459 116.832 21.0419 116.56C20.7459 116.288 20.2379 116.152 19.5179 116.152H17.8619V119.728H19.5659Z" fill="#C5C5C5"/>
<path d="M31.9157 123.496L30.2237 120.22H30.1037H28.1837V123.496H27.1277V115.144H29.9597C30.9597 115.144 31.7037 115.356 32.1917 115.78C32.6797 116.196 32.9237 116.808 32.9237 117.616C32.9237 118.216 32.7917 118.724 32.5277 119.14C32.2637 119.556 31.8757 119.852 31.3637 120.028L33.1877 123.496H31.9157ZM29.9717 119.224C30.5957 119.224 31.0517 119.104 31.3397 118.864C31.6357 118.616 31.7837 118.2 31.7837 117.616C31.7837 117.08 31.6357 116.704 31.3397 116.488C31.0517 116.264 30.5917 116.152 29.9597 116.152H28.1837V119.224H29.9717Z" fill="#000000"/>
<path d="M41.4701 123.64C40.6621 123.64 39.9701 123.46 39.3941 123.1C38.8261 122.74 38.3901 122.236 38.0861 121.588C37.7901 120.94 37.6421 120.184 37.6421 119.32C37.6421 118.456 37.7901 117.7 38.0861 117.052C38.3901 116.404 38.8261 115.9 39.3941 115.54C39.9701 115.18 40.6621 115 41.4701 115C42.2781 115 42.9661 115.18 43.5341 115.54C44.1101 115.9 44.5461 116.404 44.8421 117.052C45.1461 117.7 45.2981 118.456 45.2981 119.32C45.2981 120.184 45.1461 120.94 44.8421 121.588C44.5461 122.236 44.1101 122.74 43.5341 123.1C42.9661 123.46 42.2781 123.64 41.4701 123.64ZM41.4701 122.68C42.3661 122.68 43.0381 122.38 43.4861 121.78C43.9341 121.172 44.1581 120.352 44.1581 119.32C44.1581 118.288 43.9341 117.472 43.4861 116.872C43.0381 116.264 42.3661 115.96 41.4701 115.96C40.5741 115.96 39.9021 116.264 39.4541 116.872C39.0061 117.472 38.7821 118.288 38.7821 119.32C38.7821 120.352 39.0061 121.172 39.4541 121.78C39.9021 122.38 40.5741 122.68 41.4701 122.68Z" fill="#000000"/>
<path d="M51.4642 116.152V118.936H54.4882V119.896H51.4642V123.496H50.4082V115.144H55.2802V116.152H51.4642Z" fill="#000000"/>
<path d="M61.0595 116.152V118.792H64.7195V119.752H61.0595V122.488H64.9835V123.496H60.0035V115.144H64.9835V116.152H61.0595Z" fill="#000000"/>
<path d="M72.4913 123.64C72.0273 123.64 71.5433 123.58 71.0393 123.46C70.5353 123.34 70.0593 123.176 69.6113 122.968V121.828C70.1393 122.116 70.6273 122.328 71.0753 122.464C71.5313 122.6 71.9793 122.668 72.4193 122.668C72.9713 122.668 73.3993 122.544 73.7033 122.296C74.0073 122.048 74.1593 121.708 74.1593 121.276C74.1593 120.98 74.0753 120.732 73.9073 120.532C73.7393 120.332 73.5273 120.172 73.2713 120.052C73.0153 119.932 72.6713 119.8 72.2393 119.656C71.7193 119.48 71.2993 119.312 70.9793 119.152C70.6673 118.992 70.3993 118.764 70.1753 118.468C69.9513 118.172 69.8393 117.788 69.8393 117.316C69.8393 116.612 70.0953 116.052 70.6073 115.636C71.1193 115.212 71.8073 115 72.6713 115C73.5113 115 74.2833 115.18 74.9873 115.54V116.644C74.1953 116.196 73.4233 115.972 72.6713 115.972C72.1193 115.972 71.6873 116.084 71.3753 116.308C71.0633 116.524 70.9073 116.824 70.9073 117.208C70.9073 117.472 70.9873 117.692 71.1473 117.868C71.3073 118.044 71.5033 118.188 71.7353 118.3C71.9673 118.404 72.2953 118.532 72.7193 118.684C73.2473 118.86 73.6793 119.032 74.0153 119.2C74.3513 119.368 74.6353 119.612 74.8673 119.932C75.1073 120.252 75.2273 120.664 75.2273 121.168C75.2273 121.664 75.1153 122.1 74.8913 122.476C74.6673 122.844 74.3473 123.132 73.9313 123.34C73.5153 123.54 73.0353 123.64 72.4913 123.64Z" fill="#000000"/>
<path d="M82.5671 123.64C82.1031 123.64 81.6191 123.58 81.1151 123.46C80.6111 123.34 80.1351 123.176 79.6871 122.968V121.828C80.2151 122.116 80.7031 122.328 81.1511 122.464C81.6071 122.6 82.0551 122.668 82.4951 122.668C83.0471 122.668 83.4751 122.544 83.7791 122.296C84.0831 122.048 84.2351 121.708 84.2351 121.276C84.2351 120.98 84.1511 120.732 83.9831 120.532C83.8151 120.332 83.6031 120.172 83.3471 120.052C83.0911 119.932 82.7471 119.8 82.3151 119.656C81.7951 119.48 81.3751 119.312 81.0551 119.152C80.7431 118.992 80.4751 118.764 80.2511 118.468C80.0271 118.172 79.9151 117.788 79.9151 117.316C79.9151 116.612 80.1711 116.052 80.6831 115.636C81.1951 115.212 81.8831 115 82.7471 115C83.5871 115 84.3591 115.18 85.0631 115.54V116.644C84.2711 116.196 83.4991 115.972 82.7471 115.972C82.1951 115.972 81.7631 116.084 81.4511 116.308C81.1391 116.524 80.9831 116.824 80.9831 117.208C80.9831 117.472 81.0631 117.692 81.2231 117.868C81.3831 118.044 81.5791 118.188 81.8111 118.3C82.0431 118.404 82.3711 118.532 82.7951 118.684C83.3231 118.86 83.7551 119.032 84.0911 119.2C84.4271 119.368 84.7111 119.612 84.9431 119.932C85.1831 120.252 85.3031 120.664 85.3031 121.168C85.3031 121.664 85.1911 122.1 84.9671 122.476C84.7431 122.844 84.4231 123.132 84.0071 123.34C83.5911 123.54 83.1111 123.64 82.5671 123.64Z" fill="#000000"/>
<path d="M90.1229 115.144H91.1789V123.496H90.1229V115.144Z" fill="#000000"/>
<path d="M100.015 123.64C99.2066 123.64 98.5146 123.46 97.9386 123.1C97.3706 122.74 96.9346 122.236 96.6306 121.588C96.3346 120.94 96.1866 120.184 96.1866 119.32C96.1866 118.456 96.3346 117.7 96.6306 117.052C96.9346 116.404 97.3706 115.9 97.9386 115.54C98.5146 115.18 99.2066 115 100.015 115C100.823 115 101.511 115.18 102.079 115.54C102.655 115.9 103.091 116.404 103.387 117.052C103.691 117.7 103.843 118.456 103.843 119.32C103.843 120.184 103.691 120.94 103.387 121.588C103.091 122.236 102.655 122.74 102.079 123.1C101.511 123.46 100.823 123.64 100.015 123.64ZM100.015 122.68C100.911 122.68 101.583 122.38 102.031 121.78C102.479 121.172 102.703 120.352 102.703 119.32C102.703 118.288 102.479 117.472 102.031 116.872C101.583 116.264 100.911 115.96 100.015 115.96C99.1186 115.96 98.4466 116.264 97.9986 116.872C97.5506 117.472 97.3266 118.288 97.3266 119.32C97.3266 120.352 97.5506 121.172 97.9986 121.78C98.4466 122.38 99.1186 122.68 100.015 122.68Z" fill="#000000"/>
<path d="M115.553 115.144V123.496H114.497L110.009 117.052V123.496H108.953V115.144H110.009L114.497 121.588V115.144H115.553Z" fill="#C5C5C5"/>
<path d="M125.87 121.288H121.85L120.998 123.496H119.942L123.158 115.144H124.622L127.838 123.496H126.722L125.87 121.288ZM125.522 120.388L123.866 116.068L122.198 120.388H125.522Z" fill="#000000"/>
<path d="M132.233 115.144H133.289V122.488H137.057V123.496H132.233V115.144Z" fill="#000000"/>
<path d="M48.4591 7.27834V31.5893H53.9305V12.7851H99.0482V61.0655H53.9305V41.3862H48.4591V66.4869H104.52V7.27834H48.4591ZM46.0012 4.50361H107.255V68.8774H46.0012L45.873 38.6542H71.8621C73.8712 38.6542 74.8329 38.953 75.1963 39.572C75.5596 40.1909 75.7947 40.1269 75.7947 43.4779V49.0487C75.7947 53.0828 74.9184 54.0006 72.8239 54.0006H61.7315V41.5356H56.3883V58.6749H87.9771C96.8468 58.6749 96.3552 55.3026 96.3552 49.7958V41.5143H90.9907V49.0701C90.9907 51.6527 90.7556 54.0433 88.2763 54.0433H80.4326C80.9883 52.6986 81.202 51.2472 81.1165 49.8171V43.2432C81.1165 39.1237 79.3639 36.904 78.1671 36.4771C79.2357 35.602 79.941 34.364 80.1547 33.0193C80.6249 28.6224 80.5822 24.1829 80.0051 19.786H87.7206C90.9479 19.786 91.0548 21.8564 91.0548 23.0089V31.8881H96.5262V21.5362C96.5262 18.0998 95.0515 15.197 90.7983 15.197H56.6448V31.4399H61.817V19.5939H72.311C73.9139 19.5939 74.897 19.8927 74.897 22.5607V31.2905C74.897 32.6565 74.4482 33.8304 71.9262 33.8304H46.0012V4.50361V4.50361ZM41 74H112V0H41V74Z" fill="#000000"/>
<path d="M73.2641 89.2196C71.9341 89.2889 70.5921 89.2889 69.262 89.2196C68.9533 89.5547 68.9533 90.0747 69.262 90.4099C69.7014 90.433 70.129 90.537 70.5327 90.7103C70.6396 90.7797 70.6277 90.9646 70.5327 91.2535L67.2313 100.602L64.2149 91.4268C64.0961 91.0223 64.108 90.7797 64.2742 90.641C64.5949 90.4792 64.9393 90.3752 65.2955 90.3405C65.5331 89.9938 65.5331 89.5431 65.2955 89.208C63.6092 89.3005 61.9229 89.3005 60.2365 89.208C59.999 89.5778 59.999 90.0401 60.2365 90.3983C60.6165 90.3636 60.9965 90.4676 61.3172 90.6872C61.6378 90.9068 61.8753 91.2304 61.9941 91.5886C62.4098 92.9753 62.5166 93.0216 62.3029 93.9807L59.7021 100.637L56.5669 91.0917C56.4006 90.4445 57.517 90.4908 57.5288 90.4908C57.802 90.1325 57.802 89.6471 57.5288 89.3005C55.9494 89.3929 54.358 89.3929 52.7786 89.3005C52.541 89.6703 52.541 90.1325 52.7786 90.4908C53.6336 90.4908 53.9543 90.4908 54.2868 91.5077C54.3818 91.8197 57.9564 102.475 58.2651 103.318C58.3126 103.492 58.4195 103.653 58.5739 103.757C58.8708 103.988 59.2864 103.988 59.5833 103.757C59.7258 103.642 59.8327 103.492 59.8921 103.318C60.4146 102.128 63.0273 95.275 63.0273 95.275C63.0273 95.275 65.1649 101.7 65.6756 103.318C65.7231 103.503 65.83 103.665 65.9843 103.78C66.2812 104.012 66.7088 104.012 67.0056 103.78C67.16 103.665 67.255 103.503 67.3025 103.318L71.5659 91.6233C71.6728 91.2535 71.9103 90.9414 72.231 90.7103C72.5397 90.4908 72.9316 90.3983 73.3116 90.4214C73.4541 90.2481 73.5373 90.0516 73.5729 89.832C73.6085 89.6125 73.5729 89.3929 73.5017 89.1849H73.276L73.2641 89.2196ZM21.1417 91.4153C21.1417 90.9414 21.3198 90.225 22.7687 90.225C23.41 90.1441 24.0513 90.3174 24.55 90.6988C25.0607 91.1032 25.4051 91.681 25.4882 92.3051C26.0939 93.7727 25.3457 95.4484 23.8375 96.0262C23.315 96.2227 22.7568 96.2804 22.2105 96.1764H21.1417V91.4037V91.4153ZM16.9496 89.7627C16.9496 89.9823 17.0327 90.2018 17.1871 90.3636C17.4127 90.3636 18.5172 90.4445 18.6359 90.6757C18.8497 91.1263 18.9447 91.6117 18.8853 92.1086C18.8853 102.024 18.9685 101.446 18.6359 102.128C18.1728 102.347 17.6503 102.44 17.1396 102.428C16.8665 102.787 16.9021 103.284 17.2109 103.619H23.0537C23.3387 103.341 23.2437 102.81 23.0537 102.428C22.5312 102.451 22.0205 102.347 21.5574 102.128C21.1655 101.735 21.2486 100.66 21.2486 97.2743C22.9468 97.1818 23.315 97.829 23.4218 97.9908C23.5287 98.1525 25.0132 100.533 25.702 101.654C25.9989 102.22 26.4383 102.706 26.9608 103.076C27.4833 103.434 28.0771 103.676 28.7184 103.757C29.0984 103.78 29.4666 103.7 29.7991 103.515C29.8941 103.284 29.8941 103.029 29.7991 102.798H29.5853C28.4096 102.856 28.1246 101.897 25.1319 96.916C25.9039 96.604 26.5689 96.084 27.032 95.4022C27.5071 94.7088 27.7683 93.8998 27.7802 93.0678C27.7802 92.5362 27.6852 92.0046 27.4833 91.5077C27.2814 91.0223 26.9846 90.5716 26.6045 90.1903C25.2151 88.8035 22.2461 89.2196 20.0966 89.2196C18.4103 89.2196 17.5434 89.1618 17.199 89.1618C17.0446 89.3236 16.9615 89.5316 16.9615 89.7627H16.9496ZM130.267 91.5077C131.324 92.3398 132.049 93.5069 132.31 94.8128C132.726 96.4653 132.714 98.1988 132.251 99.8513H132.239C131.206 102.567 127.762 102.463 127.132 102.486C126.265 102.486 124.959 102.486 124.959 101.596V91.1957C124.959 90.8143 125.054 90.3521 126.586 90.3636C127.916 90.2827 129.234 90.6872 130.267 91.4961V91.5077ZM120.921 89.7512C120.921 89.9707 121.004 90.1903 121.159 90.3521C121.658 90.329 122.156 90.433 122.596 90.6525C122.715 90.7681 122.833 91.0686 122.833 92.0971V100.73C122.833 101.804 122.655 102.105 122.596 102.163C122.156 102.405 121.658 102.509 121.159 102.463C120.838 102.798 120.838 103.318 121.159 103.653H128.023C135.671 103.584 135.255 97.0316 135.255 96.7542C135.255 95.7488 135.03 94.7435 134.638 93.819C134.246 92.8945 133.676 92.0624 132.951 91.3575C132.239 90.6641 131.396 90.121 130.457 89.7512C129.531 89.3929 128.546 89.2196 127.548 89.2542V89.208C120.66 89.208 121.824 89.1502 121.171 89.1502C121.016 89.312 120.933 89.52 120.933 89.7512H120.921ZM143.509 89.1387H140.611C140.386 89.5085 140.386 89.9707 140.611 90.329C141.134 90.3174 141.644 90.4214 142.119 90.6294C142.238 90.745 142.416 91.0455 142.416 92.0624V100.649C142.416 102.07 142.309 102.394 140.552 102.394C140.326 102.763 140.326 103.214 140.552 103.584H143.45C146.703 103.515 151.014 103.584 151.097 103.584C151.501 102.324 151.81 101.042 152 99.7357C151.596 99.5393 151.133 99.4931 150.682 99.5971C150.444 100.048 150.1 102.417 147.974 102.417H145.017C144.708 102.417 144.411 102.417 144.411 101.7V96.5925C145.421 96.5116 146.43 96.5693 147.428 96.7773C147.939 96.9854 147.974 97.4361 147.974 97.9676C148.117 98.1179 148.319 98.2103 148.52 98.2103C148.627 98.2103 148.746 98.2103 148.841 98.1525C148.948 98.1063 149.043 98.0485 149.114 97.9676C149.031 96.6733 149.031 95.3675 149.114 94.0616C148.722 93.6687 148.022 93.8767 148.022 94.0616C147.962 94.8359 147.844 95.0901 147.725 95.1479C147.404 95.4599 145.551 95.3906 144.459 95.3906V91.1263C144.459 90.7797 144.637 90.3405 145.065 90.3521H147.345C148.437 90.2712 149.126 90.8952 149.684 92.6287C149.684 92.8251 150.314 92.7904 150.706 92.6287C150.824 92.6287 150.848 92.5478 150.824 92.4553C150.587 90.8952 150.397 89.8205 150.349 89.3929C150.349 89.2773 150.349 89.1502 150.041 89.1502C149.53 89.2311 149.15 89.1502 143.485 89.1502L143.509 89.1387ZM4.20697 101.203V96.4307C6.0477 96.4307 7.2709 96.2804 8.5416 97.3898C8.87412 97.7134 9.13538 98.0832 9.30164 98.5108C9.47978 98.9384 9.56291 99.3891 9.56291 99.8398C9.69354 102.371 6.96213 102.521 5.89332 102.451H5.83393C4.3851 102.382 4.20697 101.758 4.20697 101.203ZM6.9265 90.4792C7.25902 90.5948 7.55591 90.7797 7.79343 91.0339C8.04282 91.2881 8.23283 91.577 8.35159 91.9122C8.47034 92.2473 8.51784 92.594 8.49409 92.9407C8.41096 94.4314 7.53216 95.2173 5.6083 95.2173H4.21884V91.0801C4.21884 90.6179 4.21884 90.537 4.64637 90.4214C5.06201 90.3636 5.48954 90.3405 5.91707 90.3636C6.26146 90.329 6.60586 90.3636 6.93837 90.4908L6.9265 90.4792ZM3.07877 89.1271H0.240483C0.0860988 89.2889 0.00296803 89.4969 0.00296803 89.728C0.00296803 89.9476 0.0860988 90.1672 0.240483 90.329C0.739262 90.3174 1.23804 90.4214 1.68932 90.641C1.80808 90.7565 1.92683 91.057 1.92683 92.074V100.706C1.92683 101.781 1.7487 102.082 1.68932 102.151C1.24992 102.382 0.739262 102.486 0.240483 102.451C-0.0801609 102.787 -0.0801609 103.307 0.240483 103.642H6.26146C7.8528 103.734 9.4204 103.237 10.6555 102.267C11.0117 101.874 11.2968 101.423 11.4749 100.938C11.6649 100.441 11.748 99.9091 11.7243 99.3775C11.7243 98.5108 11.4511 97.6672 10.9286 96.9738C10.418 96.292 9.66979 95.8182 8.83849 95.6102V95.5293C9.34914 95.2288 9.76479 94.8243 10.0617 94.339C10.3705 93.8421 10.5486 93.2989 10.5961 92.7211C10.5961 90.3405 8.96912 89.1387 5.77456 89.1387H3.0669L3.07877 89.1271ZM85.5911 90.9992C84.8073 91.7273 84.1898 92.6171 83.786 93.5994C83.3822 94.5932 83.1922 95.668 83.2397 96.7427C83.2278 97.933 83.4772 99.1117 83.9641 100.21C84.4748 101.307 85.2823 102.243 86.3037 102.902C87.3843 103.596 88.655 103.977 89.9614 104H90.2226C91.339 104 92.4315 103.711 93.4053 103.191C94.4029 102.659 95.2461 101.908 95.8873 100.995V100.753C95.8755 100.602 95.8042 100.464 95.6855 100.371C95.5786 100.279 95.4361 100.221 95.2817 100.221L95.3292 100.198H95.2698V100.256C94.6285 101.007 93.8328 101.631 92.9303 102.059C92.099 102.428 91.1964 102.613 90.282 102.602C89.3082 102.625 88.3582 102.29 87.6337 101.643C86.9093 100.984 86.3512 100.163 86.0186 99.2619C85.6624 98.2797 85.508 97.2396 85.5436 96.1995C85.5436 95.3906 85.6505 94.5817 85.8999 93.819C86.1018 93.1834 86.4105 92.5824 86.8024 92.0277C87.1706 91.4846 87.6575 91.0339 88.2394 90.6988C88.8094 90.3752 89.4507 90.1903 90.1158 90.1672C91.1608 90.0978 92.2059 90.4099 93.0253 91.0455C93.8685 91.6926 94.4623 92.6055 94.6879 93.6341V93.7496H94.8066C95.1154 93.8305 95.4361 93.7843 95.7092 93.6341H95.828V93.5185C95.7686 92.802 95.5786 91.6579 95.3529 90.1672V90.0516H95.1629C94.581 89.9361 94.0229 89.7858 93.4766 89.5663C92.4671 89.2542 91.4102 89.0925 90.3414 89.0809H90.3176C88.5363 89.0809 86.8381 89.7743 85.5792 90.9992H85.5911ZM109.01 102.717C108.333 102.717 107.68 102.555 107.074 102.267C106.469 101.978 105.922 101.55 105.495 101.042C104.735 99.9784 104.236 98.7535 104.034 97.4707C103.832 96.1764 103.927 94.859 104.331 93.6109C104.509 92.7211 104.972 91.9122 105.649 91.2997C106.314 90.6988 107.157 90.3405 108.06 90.2596C108.737 90.2596 109.414 90.4099 110.019 90.7103C110.637 91.0108 111.171 91.4615 111.575 92.0046C113.463 94.7319 113.582 98.2681 111.884 101.111H111.979C111.658 101.608 111.231 102.012 110.708 102.301C110.198 102.579 109.616 102.729 109.034 102.729L109.01 102.717ZM108.606 89H108.464C104.26 89 101.623 92.3513 101.6 96.7311C101.576 97.6787 101.73 98.6148 102.075 99.5046C102.419 100.383 102.93 101.18 103.595 101.862C104.248 102.532 105.032 103.052 105.91 103.411C106.777 103.757 107.704 103.931 108.642 103.896C113.618 103.977 115.672 99.7935 115.672 96.3498C115.696 95.3906 115.53 94.443 115.185 93.5416C114.841 92.6518 114.318 91.8428 113.653 91.161C113 90.4792 112.216 89.9361 111.338 89.5663C110.483 89.208 109.568 89.0116 108.63 89.0116H108.594L108.606 89ZM40.2497 102.29C39.644 102.001 39.0978 101.573 38.6702 101.065C37.9102 100.002 37.4114 98.7766 37.2095 97.4938C37.0076 96.1995 37.1026 94.8821 37.5064 93.6341C37.6845 92.7442 38.1477 91.9353 38.8246 91.3228C39.4897 90.7219 40.3447 90.3636 41.2473 90.2827C41.9242 90.2827 42.6011 90.433 43.2068 90.7334C43.8243 91.0339 44.3587 91.4846 44.7625 92.0162C46.6507 94.7435 46.7695 98.2797 45.0594 101.122H45.1306C44.81 101.619 44.3824 102.024 43.8599 102.313C43.3493 102.59 42.7792 102.74 42.1854 102.74C41.5085 102.74 40.8554 102.579 40.2497 102.29ZM41.7935 89.0116H41.6154C37.4114 89.0116 34.775 92.3629 34.7513 96.7427C34.7156 97.6903 34.8819 98.6263 35.2263 99.5162C35.5588 100.394 36.0813 101.192 36.7464 101.874C37.3995 102.544 38.1952 103.064 39.074 103.422C39.9409 103.769 40.8672 103.942 41.8054 103.908C46.7813 103.988 48.8358 99.8051 48.8358 96.3613C48.8596 95.4022 48.6814 94.443 48.3371 93.5416C47.9927 92.6518 47.4701 91.8313 46.7932 91.1379C46.1282 90.4561 45.3325 89.9129 44.4418 89.5431C43.6105 89.1965 42.708 89.0116 41.8054 89.0116H41.7935Z" fill="#000000"/>
<path d="M73.2641 89.2196C71.9341 89.2889 70.5921 89.2889 69.262 89.2196C68.9533 89.5547 68.9533 90.0747 69.262 90.4099C69.7014 90.433 70.129 90.537 70.5327 90.7103C70.6396 90.7797 70.6277 90.9646 70.5327 91.2535L67.2313 100.602L64.2149 91.4268C64.0961 91.0223 64.108 90.7797 64.2742 90.641C64.5949 90.4792 64.9393 90.3752 65.2955 90.3405C65.5331 89.9938 65.5331 89.5431 65.2955 89.208C63.6092 89.3005 61.9229 89.3005 60.2365 89.208C59.999 89.5778 59.999 90.0401 60.2365 90.3983C60.6165 90.3636 60.9965 90.4676 61.3172 90.6872C61.6378 90.9068 61.8753 91.2304 61.9941 91.5886C62.4098 92.9753 62.5166 93.0216 62.3029 93.9807L59.7021 100.637L56.5669 91.0917C56.4006 90.4445 57.517 90.4908 57.5288 90.4908C57.802 90.1325 57.802 89.6471 57.5288 89.3005C55.9494 89.3929 54.358 89.3929 52.7786 89.3005C52.541 89.6703 52.541 90.1325 52.7786 90.4908C53.6336 90.4908 53.9543 90.4908 54.2868 91.5077C54.3818 91.8197 57.9564 102.475 58.2651 103.318C58.3126 103.492 58.4195 103.653 58.5739 103.757C58.8708 103.988 59.2864 103.988 59.5833 103.757C59.7258 103.642 59.8327 103.492 59.8921 103.318C60.4146 102.128 63.0273 95.275 63.0273 95.275C63.0273 95.275 65.1649 101.7 65.6756 103.318C65.7231 103.503 65.83 103.665 65.9843 103.78C66.2812 104.012 66.7088 104.012 67.0056 103.78C67.16 103.665 67.255 103.503 67.3025 103.318L71.5659 91.6233C71.6728 91.2535 71.9103 90.9414 72.231 90.7103C72.5397 90.4908 72.9316 90.3983 73.3116 90.4214C73.4541 90.2481 73.5373 90.0516 73.5729 89.832C73.6085 89.6125 73.5729 89.3929 73.5017 89.1849H73.276L73.2641 89.2196ZM21.1417 91.4153C21.1417 90.9414 21.3198 90.225 22.7687 90.225C23.41 90.1441 24.0513 90.3174 24.55 90.6988C25.0607 91.1032 25.4051 91.681 25.4882 92.3051C26.0939 93.7727 25.3457 95.4484 23.8375 96.0262C23.315 96.2227 22.7568 96.2804 22.2105 96.1764H21.1417V91.4037V91.4153ZM16.9496 89.7627C16.9496 89.9823 17.0327 90.2018 17.1871 90.3636C17.4127 90.3636 18.5172 90.4445 18.6359 90.6757C18.8497 91.1263 18.9447 91.6117 18.8853 92.1086C18.8853 102.024 18.9685 101.446 18.6359 102.128C18.1728 102.347 17.6503 102.44 17.1396 102.428C16.8665 102.787 16.9021 103.284 17.2109 103.619H23.0537C23.3387 103.341 23.2437 102.81 23.0537 102.428C22.5312 102.451 22.0205 102.347 21.5574 102.128C21.1655 101.735 21.2486 100.66 21.2486 97.2743C22.9468 97.1818 23.315 97.829 23.4218 97.9908C23.5287 98.1525 25.0132 100.533 25.702 101.654C25.9989 102.22 26.4383 102.706 26.9608 103.076C27.4833 103.434 28.0771 103.676 28.7184 103.757C29.0984 103.78 29.4666 103.7 29.7991 103.515C29.8941 103.284 29.8941 103.029 29.7991 102.798H29.5853C28.4096 102.856 28.1246 101.897 25.1319 96.916C25.9039 96.604 26.5689 96.084 27.032 95.4022C27.5071 94.7088 27.7683 93.8998 27.7802 93.0678C27.7802 92.5362 27.6852 92.0046 27.4833 91.5077C27.2814 91.0223 26.9846 90.5716 26.6045 90.1903C25.2151 88.8035 22.2461 89.2196 20.0966 89.2196C18.4103 89.2196 17.5434 89.1618 17.199 89.1618C17.0446 89.3236 16.9615 89.5316 16.9615 89.7627H16.9496ZM130.267 91.5077C131.324 92.3398 132.049 93.5069 132.31 94.8128C132.726 96.4653 132.714 98.1988 132.251 99.8513H132.239C131.206 102.567 127.762 102.463 127.132 102.486C126.265 102.486 124.959 102.486 124.959 101.596V91.1957C124.959 90.8143 125.054 90.3521 126.586 90.3636C127.916 90.2827 129.234 90.6872 130.267 91.4961V91.5077ZM120.921 89.7512C120.921 89.9707 121.004 90.1903 121.159 90.3521C121.658 90.329 122.156 90.433 122.596 90.6525C122.715 90.7681 122.833 91.0686 122.833 92.0971V100.73C122.833 101.804 122.655 102.105 122.596 102.163C122.156 102.405 121.658 102.509 121.159 102.463C120.838 102.798 120.838 103.318 121.159 103.653H128.023C135.671 103.584 135.255 97.0316 135.255 96.7542C135.255 95.7488 135.03 94.7435 134.638 93.819C134.246 92.8945 133.676 92.0624 132.951 91.3575C132.239 90.6641 131.396 90.121 130.457 89.7512C129.531 89.3929 128.546 89.2196 127.548 89.2542V89.208C120.66 89.208 121.824 89.1502 121.171 89.1502C121.016 89.312 120.933 89.52 120.933 89.7512H120.921ZM143.509 89.1387H140.611C140.386 89.5085 140.386 89.9707 140.611 90.329C141.134 90.3174 141.644 90.4214 142.119 90.6294C142.238 90.745 142.416 91.0455 142.416 92.0624V100.649C142.416 102.07 142.309 102.394 140.552 102.394C140.326 102.763 140.326 103.214 140.552 103.584H143.45C146.703 103.515 151.014 103.584 151.097 103.584C151.501 102.324 151.81 101.042 152 99.7357C151.596 99.5393 151.133 99.4931 150.682 99.5971C150.444 100.048 150.1 102.417 147.974 102.417H145.017C144.708 102.417 144.411 102.417 144.411 101.7V96.5925C145.421 96.5116 146.43 96.5693 147.428 96.7773C147.939 96.9854 147.974 97.4361 147.974 97.9676C148.117 98.1179 148.319 98.2103 148.52 98.2103C148.627 98.2103 148.746 98.2103 148.841 98.1525C148.948 98.1063 149.043 98.0485 149.114 97.9676C149.031 96.6733 149.031 95.3675 149.114 94.0616C148.722 93.6687 148.022 93.8767 148.022 94.0616C147.962 94.8359 147.844 95.0901 147.725 95.1479C147.404 95.4599 145.551 95.3906 144.459 95.3906V91.1263C144.459 90.7797 144.637 90.3405 145.065 90.3521H147.345C148.437 90.2712 149.126 90.8952 149.684 92.6287C149.684 92.8251 150.314 92.7904 150.706 92.6287C150.824 92.6287 150.848 92.5478 150.824 92.4553C150.587 90.8952 150.397 89.8205 150.349 89.3929C150.349 89.2773 150.349 89.1502 150.041 89.1502C149.53 89.2311 149.15 89.1502 143.485 89.1502L143.509 89.1387ZM4.20697 101.203V96.4307C6.0477 96.4307 7.2709 96.2804 8.5416 97.3898C8.87412 97.7134 9.13538 98.0832 9.30164 98.5108C9.47978 98.9384 9.56291 99.3891 9.56291 99.8398C9.69354 102.371 6.96213 102.521 5.89332 102.451H5.83393C4.3851 102.382 4.20697 101.758 4.20697 101.203ZM6.9265 90.4792C7.25902 90.5948 7.55591 90.7797 7.79343 91.0339C8.04282 91.2881 8.23283 91.577 8.35159 91.9122C8.47034 92.2473 8.51784 92.594 8.49409 92.9407C8.41096 94.4314 7.53216 95.2173 5.6083 95.2173H4.21884V91.0801C4.21884 90.6179 4.21884 90.537 4.64637 90.4214C5.06201 90.3636 5.48954 90.3405 5.91707 90.3636C6.26146 90.329 6.60586 90.3636 6.93837 90.4908L6.9265 90.4792ZM3.07877 89.1271H0.240483C0.0860988 89.2889 0.00296803 89.4969 0.00296803 89.728C0.00296803 89.9476 0.0860988 90.1672 0.240483 90.329C0.739262 90.3174 1.23804 90.4214 1.68932 90.641C1.80808 90.7565 1.92683 91.057 1.92683 92.074V100.706C1.92683 101.781 1.7487 102.082 1.68932 102.151C1.24992 102.382 0.739262 102.486 0.240483 102.451C-0.0801609 102.787 -0.0801609 103.307 0.240483 103.642H6.26146C7.8528 103.734 9.4204 103.237 10.6555 102.267C11.0117 101.874 11.2968 101.423 11.4749 100.938C11.6649 100.441 11.748 99.9091 11.7243 99.3775C11.7243 98.5108 11.4511 97.6672 10.9286 96.9738C10.418 96.292 9.66979 95.8182 8.83849 95.6102V95.5293C9.34914 95.2288 9.76479 94.8243 10.0617 94.339C10.3705 93.8421 10.5486 93.2989 10.5961 92.7211C10.5961 90.3405 8.96912 89.1387 5.77456 89.1387H3.0669L3.07877 89.1271ZM85.5911 90.9992C84.8073 91.7273 84.1898 92.6171 83.786 93.5994C83.3822 94.5932 83.1922 95.668 83.2397 96.7427C83.2278 97.933 83.4772 99.1117 83.9641 100.21C84.4748 101.307 85.2823 102.243 86.3037 102.902C87.3843 103.596 88.655 103.977 89.9614 104H90.2226C91.339 104 92.4315 103.711 93.4053 103.191C94.4029 102.659 95.2461 101.908 95.8873 100.995V100.753C95.8755 100.602 95.8042 100.464 95.6855 100.371C95.5786 100.279 95.4361 100.221 95.2817 100.221L95.3292 100.198H95.2698V100.256C94.6285 101.007 93.8328 101.631 92.9303 102.059C92.099 102.428 91.1964 102.613 90.282 102.602C89.3082 102.625 88.3582 102.29 87.6337 101.643C86.9093 100.984 86.3512 100.163 86.0186 99.2619C85.6624 98.2797 85.508 97.2396 85.5436 96.1995C85.5436 95.3906 85.6505 94.5817 85.8999 93.819C86.1018 93.1834 86.4105 92.5824 86.8024 92.0277C87.1706 91.4846 87.6575 91.0339 88.2394 90.6988C88.8094 90.3752 89.4507 90.1903 90.1158 90.1672C91.1608 90.0978 92.2059 90.4099 93.0253 91.0455C93.8685 91.6926 94.4623 92.6055 94.6879 93.6341V93.7496H94.8066C95.1154 93.8305 95.4361 93.7843 95.7092 93.6341H95.828V93.5185C95.7686 92.802 95.5786 91.6579 95.3529 90.1672V90.0516H95.1629C94.581 89.9361 94.0229 89.7858 93.4766 89.5663C92.4671 89.2542 91.4102 89.0925 90.3414 89.0809H90.3176C88.5363 89.0809 86.8381 89.7743 85.5792 90.9992H85.5911ZM109.01 102.717C108.333 102.717 107.68 102.555 107.074 102.267C106.469 101.978 105.922 101.55 105.495 101.042C104.735 99.9784 104.236 98.7535 104.034 97.4707C103.832 96.1764 103.927 94.859 104.331 93.6109C104.509 92.7211 104.972 91.9122 105.649 91.2997C106.314 90.6988 107.157 90.3405 108.06 90.2596C108.737 90.2596 109.414 90.4099 110.019 90.7103C110.637 91.0108 111.171 91.4615 111.575 92.0046C113.463 94.7319 113.582 98.2681 111.884 101.111H111.979C111.658 101.608 111.231 102.012 110.708 102.301C110.198 102.579 109.616 102.729 109.034 102.729L109.01 102.717ZM108.606 89H108.464C104.26 89 101.623 92.3513 101.6 96.7311C101.576 97.6787 101.73 98.6148 102.075 99.5046C102.419 100.383 102.93 101.18 103.595 101.862C104.248 102.532 105.032 103.052 105.91 103.411C106.777 103.757 107.704 103.931 108.642 103.896C113.618 103.977 115.672 99.7935 115.672 96.3498C115.696 95.3906 115.53 94.443 115.185 93.5416C114.841 92.6518 114.318 91.8428 113.653 91.161C113 90.4792 112.216 89.9361 111.338 89.5663C110.483 89.208 109.568 89.0116 108.63 89.0116H108.594L108.606 89ZM40.2497 102.29C39.644 102.001 39.0978 101.573 38.6702 101.065C37.9102 100.002 37.4114 98.7766 37.2095 97.4938C37.0076 96.1995 37.1026 94.8821 37.5064 93.6341C37.6845 92.7442 38.1477 91.9353 38.8246 91.3228C39.4897 90.7219 40.3447 90.3636 41.2473 90.2827C41.9242 90.2827 42.6011 90.433 43.2068 90.7334C43.8243 91.0339 44.3587 91.4846 44.7625 92.0162C46.6507 94.7435 46.7695 98.2797 45.0594 101.122H45.1306C44.81 101.619 44.3824 102.024 43.8599 102.313C43.3493 102.59 42.7792 102.74 42.1854 102.74C41.5085 102.74 40.8554 102.579 40.2497 102.29ZM41.7935 89.0116H41.6154C37.4114 89.0116 34.775 92.3629 34.7513 96.7427C34.7156 97.6903 34.8819 98.6263 35.2263 99.5162C35.5588 100.394 36.0813 101.192 36.7464 101.874C37.3995 102.544 38.1952 103.064 39.074 103.422C39.9409 103.769 40.8672 103.942 41.8054 103.908C46.7813 103.988 48.8358 99.8051 48.8358 96.3613C48.8596 95.4022 48.6814 94.443 48.3371 93.5416C47.9927 92.6518 47.4701 91.8313 46.7932 91.1379C46.1282 90.4561 45.3325 89.9129 44.4418 89.5431C43.6105 89.1965 42.708 89.0116 41.8054 89.0116H41.7935Z" fill="#000000"/>
<defs>
</svg>
